<svg width="214" height="76" viewBox="0 0 214 76" fill="none" xmlns="http://www.w3.org/2000/svg">
<path d="M8.04 6.1H3.5V20H8.04C12.5 20 15.42 17.38 15.42 13.1C15.42 8.8 12.5 6.1 8.04 6.1ZM5.78 18.14V7.96H8.04C11.32 7.96 13.08 9.92 13.08 13.1C13.08 16.26 11.32 18.14 8.04 18.14H5.78ZM17.7797 20H20.0597V8.98H17.7797V20ZM18.9397 7.52C19.7397 7.52 20.3797 6.88 20.3797 6.06C20.3797 5.24 19.7397 4.6 18.9397 4.6C18.1197 4.6 17.4797 5.24 17.4797 6.06C17.4797 6.88 18.1197 7.52 18.9397 7.52ZM31.3731 16.92C31.2531 12.94 25.0331 14.18 25.0331 11.96C25.0331 11.22 25.6731 10.72 26.8931 10.72C28.1331 10.72 28.8731 11.38 28.9531 12.34H31.2331C31.1131 10.14 29.4731 8.8 26.9731 8.8C24.3731 8.8 22.7331 10.22 22.7331 11.98C22.7331 16.02 29.1331 14.78 29.1331 16.94C29.1331 17.7 28.4331 18.26 27.1131 18.26C25.8531 18.26 24.9931 17.52 24.9131 16.62H22.5531C22.6531 18.62 24.5131 20.18 27.1531 20.18C29.7531 20.18 31.3731 18.78 31.3731 16.92ZM33.1767 14.48C33.1767 17.94 35.4167 20.18 38.5767 20.18C41.2767 20.18 43.0367 18.68 43.6567 16.52H41.1967C40.7767 17.66 39.9367 18.26 38.5767 18.26C36.7367 18.26 35.5167 16.9 35.5167 14.48C35.5167 12.08 36.7367 10.72 38.5767 10.72C39.9367 10.72 40.8167 11.4 41.1967 12.46H43.6567C43.0367 10.14 41.2767 8.8 38.5767 8.8C35.4167 8.8 33.1767 11.04 33.1767 14.48ZM56.5289 14.48C56.5289 11.02 54.0489 8.8 50.9089 8.8C47.7689 8.8 45.2889 11.02 45.2889 14.48C45.2889 17.94 47.6689 20.18 50.8089 20.18C53.9689 20.18 56.5289 17.94 56.5289 14.48ZM47.6089 14.48C47.6089 11.98 49.1489 10.78 50.8689 10.78C52.5689 10.78 54.1889 11.98 54.1889 14.48C54.1889 16.98 52.5089 18.2 50.8089 18.2C49.0889 18.2 47.6089 16.98 47.6089 14.48ZM57.5828 8.98L61.7628 20H64.4828L68.6828 8.98H66.2628L63.1428 17.96L60.0228 8.98H57.5828ZM75.1462 10.72C76.8462 10.72 78.1862 11.8 78.2262 13.5H72.1262C72.3662 11.76 73.6062 10.72 75.1462 10.72ZM80.3062 16.72H77.8462C77.4262 17.58 76.6462 18.26 75.2462 18.26C73.5662 18.26 72.2662 17.16 72.1062 15.34H80.5262C80.5862 14.96 80.6062 14.6 80.6062 14.22C80.6062 10.98 78.3862 8.8 75.2462 8.8C71.9862 8.8 69.7462 11.02 69.7462 14.48C69.7462 17.94 72.0862 20.18 75.2462 20.18C77.9462 20.18 79.6862 18.64 80.3062 16.72ZM85.23 14.2C85.23 11.86 86.27 11.16 87.95 11.16H88.53V8.8C86.97 8.8 85.87 9.48 85.23 10.58V8.98H82.95V20H85.23V14.2ZM106.521 14.48C106.521 11.02 104.041 8.8 100.901 8.8C97.7611 8.8 95.2811 11.02 95.2811 14.48C95.2811 17.94 97.6611 20.18 100.801 20.18C103.961 20.18 106.521 17.94 106.521 14.48ZM97.6011 14.48C97.6011 11.98 99.1411 10.78 100.861 10.78C102.561 10.78 104.181 11.98 104.181 14.48C104.181 16.98 102.501 18.2 100.801 18.2C99.0811 18.2 97.6011 16.98 97.6011 14.48ZM118.855 8.98H116.575V15.12C116.575 17.14 115.475 18.18 113.795 18.18C112.135 18.18 111.035 17.14 111.035 15.12V8.98H108.775V15.46C108.775 18.54 110.735 20.16 113.315 20.16C114.615 20.16 115.855 19.62 116.575 18.68V20H118.855V8.98ZM124.243 14.2C124.243 11.86 125.283 11.16 126.963 11.16H127.543V8.8C125.983 8.8 124.883 9.48 124.243 10.58V8.98H121.963V20H124.243V14.2ZM134.274 14.44C134.274 17.84 136.574 20.18 139.434 20.18C141.274 20.18 142.594 19.3 143.294 18.36V20H145.594V8.98H143.294V10.58C142.614 9.68 141.334 8.8 139.474 8.8C136.574 8.8 134.274 11.04 134.274 14.44ZM143.294 14.48C143.294 16.86 141.674 18.2 139.954 18.2C138.254 18.2 136.614 16.82 136.614 14.44C136.614 12.06 138.254 10.78 139.954 10.78C141.674 10.78 143.294 12.12 143.294 14.48ZM150.969 10.6V8.98H148.689V25.24H150.969V18.4C151.689 19.26 152.989 20.18 154.809 20.18C157.709 20.18 159.989 17.84 159.989 14.44C159.989 11.04 157.709 8.8 154.809 8.8C153.009 8.8 151.669 9.68 150.969 10.6ZM157.669 14.44C157.669 16.82 156.029 18.2 154.309 18.2C152.609 18.2 150.969 16.86 150.969 14.48C150.969 12.12 152.609 10.78 154.309 10.78C156.029 10.78 157.669 12.06 157.669 14.44ZM164.624 10.6V8.98H162.344V25.24H164.624V18.4C165.344 19.26 166.644 20.18 168.464 20.18C171.364 20.18 173.644 17.84 173.644 14.44C173.644 11.04 171.364 8.8 168.464 8.8C166.664 8.8 165.324 9.68 164.624 10.6ZM171.324 14.44C171.324 16.82 169.684 18.2 167.964 18.2C166.264 18.2 164.624 16.86 164.624 14.48C164.624 12.12 166.264 10.78 167.964 10.78C169.684 10.78 171.324 12.06 171.324 14.44Z" fill="#5E6282"/>
<rect y="41" width="107" height="35" rx="17.5" fill="#080809"/>
<g clip-path="url(#clip0_108_79)">
<path d="M28.5075 58.0018L18.4639 67.673C17.9936 67.3516 17.7144 66.817 17.7193 66.2473V49.7563C17.7144 49.1866 17.9936 48.652 18.4639 48.3306L28.5075 58.0018Z" fill="#2196F3"/>
<path d="M32.0217 54.6236L28.5074 58.0018L18.4639 48.3305C18.5017 48.3012 18.5411 48.2739 18.5819 48.2488C19.1127 47.9271 19.7757 47.9167 20.3164 48.2216L32.0217 54.6236Z" fill="#4CAF50"/>
<path d="M36.2806 58.0017C36.2872 58.6447 35.9377 59.2387 35.3725 59.5454L32.0217 61.3798L28.5073 58.0017L32.0217 54.6235L35.3725 56.4579C35.9377 56.7646 36.2872 57.3586 36.2806 58.0017Z" fill="#F0BB1F"/>
<path d="M32.0217 61.3798L20.3164 67.7819C19.7745 68.0821 19.114 68.0717 18.5819 67.7547C18.5411 67.7296 18.5017 67.7023 18.4639 67.6729L28.5074 58.0017L32.0217 61.3798Z" fill="#F15A2B"/>
</g>
<path d="M48.024 52.8801H45.216V54.0001H46.712C46.512 54.5361 46.024 54.8641 45.28 54.8641C44.192 54.8641 43.52 54.1681 43.52 53.2161C43.52 52.2321 44.224 51.5361 45.168 51.5361C45.8 51.5361 46.304 51.8241 46.536 52.1921L47.624 51.5681C47.152 50.8161 46.248 50.2881 45.176 50.2881C43.528 50.2881 42.24 51.5841 42.24 53.2081C42.24 54.8161 43.504 56.1121 45.264 56.1121C46.832 56.1121 48.024 55.0721 48.024 53.3601V52.8801Z" fill="white"/>
<path d="M49.6256 54.7681V53.7761H51.6256V52.5601H49.6256V51.6321H51.8256V50.4001H48.3456V56.0001H51.8656V54.7681H49.6256Z" fill="white"/>
<path d="M55.9478 50.4001H51.7878V51.6321H53.2278V56.0001H54.5078V51.6321H55.9478V50.4001Z" fill="white"/>
<path d="M57.7081 50.4001V56.0001H58.9881V50.4001H57.7081Z" fill="white"/>
<path d="M63.3103 50.4001H59.1503V51.6321H60.5903V56.0001H61.8703V51.6321H63.3103V50.4001Z" fill="white"/>
<path d="M67.7426 56.1121C69.3506 56.1121 70.6546 54.8481 70.6546 53.2001C70.6546 51.5521 69.3506 50.2881 67.7426 50.2881C66.1346 50.2881 64.8306 51.5521 64.8306 53.2001C64.8306 54.8481 66.1346 56.1121 67.7426 56.1121ZM67.7426 54.8641C66.8306 54.8641 66.1106 54.2001 66.1106 53.2001C66.1106 52.2001 66.8306 51.5361 67.7426 51.5361C68.6546 51.5361 69.3746 52.2001 69.3746 53.2001C69.3746 54.2001 68.6546 54.8641 67.7426 54.8641Z" fill="white"/>
<path d="M74.0953 50.4001V53.4401L71.9353 50.4001H70.9753V56.0001H72.2553V52.9601L74.4153 56.0001H75.3753V50.4001H74.0953Z" fill="white"/>
<path d="M48.024 62.3921V62.6081C48.024 63.3068 47.776 63.8961 47.28 64.3761C46.784 64.8508 46.1307 65.0881 45.32 65.0881C44.4667 65.0881 43.7627 64.8108 43.208 64.2561C42.6533 63.6961 42.376 63.0108 42.376 62.2001C42.376 61.3894 42.6507 60.7068 43.2 60.1521C43.7493 59.5921 44.4453 59.3121 45.288 59.3121C45.8 59.3121 46.2693 59.4348 46.696 59.6801C47.128 59.9254 47.4613 60.2534 47.696 60.6641L47.32 60.8881C47.1333 60.5361 46.856 60.2534 46.488 60.0401C46.1253 59.8268 45.7253 59.7201 45.288 59.7201C44.5627 59.7201 43.9653 59.9601 43.496 60.4401C43.032 60.9148 42.8 61.5014 42.8 62.2001C42.8 62.8988 43.0347 63.4881 43.504 63.9681C43.9733 64.4428 44.5787 64.6801 45.32 64.6801C45.976 64.6801 46.5067 64.5014 46.912 64.1441C47.3173 63.7868 47.544 63.3361 47.592 62.7921H45.216V62.3921H48.024Z" fill="white"/>
<path d="M53.7026 64.2481C53.1426 64.8081 52.4599 65.0881 51.6546 65.0881C50.8493 65.0881 50.1666 64.8081 49.6066 64.2481C49.0466 63.6828 48.7666 63.0001 48.7666 62.2001C48.7666 61.4001 49.0466 60.7201 49.6066 60.1601C50.1666 59.5948 50.8493 59.3121 51.6546 59.3121C52.4599 59.3121 53.1426 59.5948 53.7026 60.1601C54.2626 60.7201 54.5426 61.4001 54.5426 62.2001C54.5426 63.0001 54.2626 63.6828 53.7026 64.2481ZM49.9026 63.9601C50.3826 64.4401 50.9666 64.6801 51.6546 64.6801C52.3426 64.6801 52.9239 64.4401 53.3986 63.9601C53.8786 63.4748 54.1186 62.8881 54.1186 62.2001C54.1186 61.5121 53.8786 60.9281 53.3986 60.4481C52.9239 59.9628 52.3426 59.7201 51.6546 59.7201C50.9666 59.7201 50.3826 59.9628 49.9026 60.4481C49.4279 60.9281 49.1906 61.5121 49.1906 62.2001C49.1906 62.8881 49.4279 63.4748 49.9026 63.9601Z" fill="white"/>
<path d="M60.2339 64.2481C59.6739 64.8081 58.9912 65.0881 58.1859 65.0881C57.3805 65.0881 56.6979 64.8081 56.1379 64.2481C55.5779 63.6828 55.2979 63.0001 55.2979 62.2001C55.2979 61.4001 55.5779 60.7201 56.1379 60.1601C56.6979 59.5948 57.3805 59.3121 58.1859 59.3121C58.9912 59.3121 59.6739 59.5948 60.2339 60.1601C60.7939 60.7201 61.0739 61.4001 61.0739 62.2001C61.0739 63.0001 60.7939 63.6828 60.2339 64.2481ZM56.4339 63.9601C56.9139 64.4401 57.4979 64.6801 58.1859 64.6801C58.8739 64.6801 59.4552 64.4401 59.9299 63.9601C60.4099 63.4748 60.6499 62.8881 60.6499 62.2001C60.6499 61.5121 60.4099 60.9281 59.9299 60.4481C59.4552 59.9628 58.8739 59.7201 58.1859 59.7201C57.4979 59.7201 56.9139 59.9628 56.4339 60.4481C55.9592 60.9281 55.7219 61.5121 55.7219 62.2001C55.7219 62.8881 55.9592 63.4748 56.4339 63.9601Z" fill="white"/>
<path d="M67.4771 62.3921V62.6081C67.4771 63.3068 67.2291 63.8961 66.7331 64.3761C66.2371 64.8508 65.5838 65.0881 64.7731 65.0881C63.9198 65.0881 63.2158 64.8108 62.6611 64.2561C62.1064 63.6961 61.8291 63.0108 61.8291 62.2001C61.8291 61.3894 62.1038 60.7068 62.6531 60.1521C63.2024 59.5921 63.8984 59.3121 64.7411 59.3121C65.2531 59.3121 65.7224 59.4348 66.1491 59.6801C66.5811 59.9254 66.9144 60.2534 67.1491 60.6641L66.7731 60.8881C66.5864 60.5361 66.3091 60.2534 65.9411 60.0401C65.5784 59.8268 65.1784 59.7201 64.7411 59.7201C64.0158 59.7201 63.4184 59.9601 62.9491 60.4401C62.4851 60.9148 62.2531 61.5014 62.2531 62.2001C62.2531 62.8988 62.4878 63.4881 62.9571 63.9681C63.4264 64.4428 64.0318 64.6801 64.7731 64.6801C65.4291 64.6801 65.9598 64.5014 66.3651 64.1441C66.7705 63.7868 66.9971 63.3361 67.0451 62.7921H64.6691V62.3921H67.4771Z" fill="white"/>
<path d="M68.9637 64.6001H71.6037V65.0001H68.5397V59.4001H68.9637V64.6001Z" fill="white"/>
<path d="M72.9091 64.6001H75.7091V65.0001H72.4851V59.4001H75.6691V59.8001H72.9091V61.9761H75.4691V62.3761H72.9091V64.6001Z" fill="white"/>
<path d="M80.7875 59.4001C81.2888 59.4001 81.7048 59.5654 82.0355 59.8961C82.3662 60.2268 82.5315 60.6401 82.5315 61.1361C82.5315 61.6321 82.3662 62.0454 82.0355 62.3761C81.7048 62.7014 81.2888 62.8641 80.7875 62.8641H79.3075V65.0001H78.8835V59.4001H80.7875ZM80.7875 62.4641C81.1715 62.4641 81.4862 62.3388 81.7315 62.0881C81.9822 61.8374 82.1075 61.5201 82.1075 61.1361C82.1075 60.7468 81.9822 60.4268 81.7315 60.1761C81.4862 59.9254 81.1715 59.8001 80.7875 59.8001H79.3075V62.4641H80.7875Z" fill="white"/>
<path d="M84.0028 64.6001H86.6428V65.0001H83.5788V59.4001H84.0028V64.6001Z" fill="white"/>
<path d="M91.4484 65.0001L90.9044 63.5761H88.0964L87.5524 65.0001H87.1044L89.2804 59.4001H89.7284L91.8964 65.0001H91.4484ZM88.2564 63.1761H90.7524L89.5044 59.9201L88.2564 63.1761Z" fill="white"/>
<path d="M95.8809 59.4001L93.8409 62.6961V65.0001H93.4169V62.6961L91.3769 59.4001H91.8569L93.6329 62.2881L95.4009 59.4001H95.8809Z" fill="white"/>
<rect x="114" y="41" width="100" height="35" rx="17.5" fill="#080809"/>
<path d="M135.789 64.9998C133.408 64.9861 131.438 60.1251 131.438 57.6495C131.438 53.6057 134.472 52.7203 135.641 52.7203C136.168 52.7203 136.73 52.9273 137.227 53.1103C137.574 53.2381 137.933 53.3699 138.132 53.3699C138.252 53.3699 138.533 53.2578 138.782 53.1593C139.312 52.9483 139.971 52.686 140.74 52.686C140.741 52.686 140.743 52.686 140.744 52.686C141.318 52.686 143.057 52.8119 144.102 54.382L144.347 54.7501L143.995 55.016C143.491 55.396 142.572 56.089 142.572 57.4619C142.572 59.0878 143.613 59.7132 144.113 60.0139C144.333 60.1467 144.562 60.2835 144.562 60.5829C144.562 60.7784 143.002 64.9756 140.736 64.9756C140.182 64.9756 139.79 64.809 139.444 64.662C139.095 64.5133 138.793 64.3851 138.295 64.3851C138.042 64.3851 137.722 64.5046 137.384 64.6314C136.922 64.8039 136.399 64.9998 135.805 64.9998H135.789Z" fill="white"/>
<path d="M140.98 49C141.039 51.1274 139.517 52.6033 137.997 52.5107C137.747 50.813 139.517 49 140.98 49Z" fill="white"/>
<path d="M153.03 54.0001H154.08L152.652 49.8001H151.428L150 54.0001H151.05L151.26 53.3401H152.82L153.03 54.0001ZM151.548 52.4401L152.04 50.8981L152.532 52.4401H151.548Z" fill="white"/>
<path d="M156.205 51.0001L155.581 52.9021L154.957 51.0001H153.961L155.071 54.0001H156.091L157.201 51.0001H156.205Z" fill="white"/>
<path d="M159.592 51.0001V51.2821C159.394 51.0541 159.1 50.9161 158.698 50.9161C157.912 50.9161 157.264 51.6061 157.264 52.5001C157.264 53.3941 157.912 54.0841 158.698 54.0841C159.1 54.0841 159.394 53.9461 159.592 53.7181V54.0001H160.492V51.0001H159.592ZM158.878 53.2321C158.464 53.2321 158.164 52.9501 158.164 52.5001C158.164 52.0501 158.464 51.7681 158.878 51.7681C159.292 51.7681 159.592 52.0501 159.592 52.5001C159.592 52.9501 159.292 53.2321 158.878 53.2321Z" fill="white"/>
<path d="M161.152 54.0001H162.052V49.6201H161.152V54.0001Z" fill="white"/>
<path d="M163.161 50.7361C163.455 50.7361 163.701 50.4901 163.701 50.1961C163.701 49.9021 163.455 49.6561 163.161 49.6561C162.867 49.6561 162.621 49.9021 162.621 50.1961C162.621 50.4901 162.867 50.7361 163.161 50.7361ZM162.711 54.0001H163.611V51.0001H162.711V54.0001Z" fill="white"/>
<path d="M166.063 50.9161C165.661 50.9161 165.367 51.0541 165.169 51.2821V49.8001H164.269V54.0001H165.169V53.7181C165.367 53.9461 165.661 54.0841 166.063 54.0841C166.849 54.0841 167.497 53.3941 167.497 52.5001C167.497 51.6061 166.849 50.9161 166.063 50.9161ZM165.883 53.2321C165.469 53.2321 165.169 52.9501 165.169 52.5001C165.169 52.0501 165.469 51.7681 165.883 51.7681C166.297 51.7681 166.597 52.0501 166.597 52.5001C166.597 52.9501 166.297 53.2321 165.883 53.2321Z" fill="white"/>
<path d="M168.008 54.0001H168.908V49.6201H168.008V54.0001Z" fill="white"/>
<path d="M170.37 52.8601H172.5C172.524 52.7461 172.536 52.6261 172.536 52.5001C172.536 51.5941 171.888 50.9161 171.012 50.9161C170.064 50.9161 169.416 51.6061 169.416 52.5001C169.416 53.3941 170.052 54.0841 171.078 54.0841C171.648 54.0841 172.092 53.8741 172.386 53.4661L171.666 53.0521C171.546 53.1841 171.336 53.2801 171.09 53.2801C170.76 53.2801 170.484 53.1721 170.37 52.8601ZM170.352 52.1881C170.436 51.8821 170.664 51.7141 171.006 51.7141C171.276 51.7141 171.546 51.8401 171.642 52.1881H170.352Z" fill="white"/>
<path d="M175.987 54.0841C176.869 54.0841 177.577 53.3941 177.577 52.5001C177.577 51.6061 176.869 50.9161 175.987 50.9161C175.105 50.9161 174.397 51.6061 174.397 52.5001C174.397 53.3941 175.105 54.0841 175.987 54.0841ZM175.987 53.2081C175.597 53.2081 175.297 52.9261 175.297 52.5001C175.297 52.0741 175.597 51.7921 175.987 51.7921C176.377 51.7921 176.677 52.0741 176.677 52.5001C176.677 52.9261 176.377 53.2081 175.987 53.2081Z" fill="white"/>
<path d="M179.844 50.9161C179.448 50.9161 179.148 51.0601 178.986 51.2821V51.0001H178.086V54.0001H178.986V52.3621C178.986 51.9361 179.214 51.7441 179.544 51.7441C179.832 51.7441 180.066 51.9181 180.066 52.2901V54.0001H180.966V52.1581C180.966 51.3481 180.45 50.9161 179.844 50.9161Z" fill="white"/>
<path d="M184.842 51.8641V51.0001H184.224V50.1601L183.324 50.4301V51.0001H182.844V51.8641H183.324V52.9261C183.324 53.7661 183.666 54.1201 184.842 54.0001V53.1841C184.446 53.2081 184.224 53.1841 184.224 52.9261V51.8641H184.842Z" fill="white"/>
<path d="M187.109 50.9161C186.713 50.9161 186.413 51.0601 186.251 51.2821V49.8001H185.351V54.0001H186.251V52.3621C186.251 51.9361 186.479 51.7441 186.809 51.7441C187.097 51.7441 187.331 51.9181 187.331 52.2901V54.0001H188.231V52.1581C188.231 51.3481 187.715 50.9161 187.109 50.9161Z" fill="white"/>
<path d="M189.654 52.8601H191.784C191.808 52.7461 191.82 52.6261 191.82 52.5001C191.82 51.5941 191.172 50.9161 190.296 50.9161C189.348 50.9161 188.7 51.6061 188.7 52.5001C188.7 53.3941 189.336 54.0841 190.362 54.0841C190.932 54.0841 191.376 53.8741 191.67 53.4661L190.95 53.0521C190.83 53.1841 190.62 53.2801 190.374 53.2801C190.044 53.2801 189.768 53.1721 189.654 52.8601ZM189.636 52.1881C189.72 51.8821 189.948 51.7141 190.29 51.7141C190.56 51.7141 190.83 51.8401 190.926 52.1881H189.636Z" fill="white"/>
<path d="M155.05 65.0001H156.8L154.42 58.0001H152.38L150 65.0001H151.75L152.1 63.9001H154.7L155.05 65.0001ZM152.58 62.4001L153.4 59.8301L154.22 62.4001H152.58Z" fill="white"/>
<path d="M160.337 59.8601C159.667 59.8601 159.177 60.0901 158.847 60.4701V60.0001H157.347V67.0001H158.847V64.5301C159.177 64.9101 159.667 65.1401 160.337 65.1401C161.647 65.1401 162.727 63.9901 162.727 62.5001C162.727 61.0101 161.647 59.8601 160.337 59.8601ZM160.037 63.7201C159.347 63.7201 158.847 63.2501 158.847 62.5001C158.847 61.7501 159.347 61.2801 160.037 61.2801C160.727 61.2801 161.227 61.7501 161.227 62.5001C161.227 63.2501 160.727 63.7201 160.037 63.7201Z" fill="white"/>
<path d="M166.567 59.8601C165.897 59.8601 165.407 60.0901 165.077 60.4701V60.0001H163.577V67.0001H165.077V64.5301C165.407 64.9101 165.897 65.1401 166.567 65.1401C167.877 65.1401 168.957 63.9901 168.957 62.5001C168.957 61.0101 167.877 59.8601 166.567 59.8601ZM166.267 63.7201C165.577 63.7201 165.077 63.2501 165.077 62.5001C165.077 61.7501 165.577 61.2801 166.267 61.2801C166.957 61.2801 167.457 61.7501 167.457 62.5001C167.457 63.2501 166.957 63.7201 166.267 63.7201Z" fill="white"/>
<path d="M169.808 65.0001H171.308V57.7001H169.808V65.0001Z" fill="white"/>
<path d="M173.745 63.1001H177.295C177.335 62.9101 177.355 62.7101 177.355 62.5001C177.355 60.9901 176.275 59.8601 174.815 59.8601C173.235 59.8601 172.155 61.0101 172.155 62.5001C172.155 63.9901 173.215 65.1401 174.925 65.1401C175.875 65.1401 176.615 64.7901 177.105 64.1101L175.905 63.4201C175.705 63.6401 175.355 63.8001 174.945 63.8001C174.395 63.8001 173.935 63.6201 173.745 63.1001ZM173.715 61.9801C173.855 61.4701 174.235 61.1901 174.805 61.1901C175.255 61.1901 175.705 61.4001 175.865 61.9801H173.715Z" fill="white"/>
<path d="M183.206 65.1401C184.726 65.1401 185.806 64.3401 185.806 62.9901C185.806 61.5101 184.616 61.1401 183.556 60.8201C182.466 60.4901 182.296 60.2701 182.296 59.9501C182.296 59.6701 182.546 59.4201 183.046 59.4201C183.686 59.4201 184.016 59.7301 184.256 60.2301L185.606 59.4401C185.096 58.4101 184.196 57.8601 183.046 57.8601C181.836 57.8601 180.696 58.6401 180.696 59.9901C180.696 61.3301 181.716 61.8301 182.756 62.1201C183.806 62.4101 184.206 62.5801 184.206 63.0101C184.206 63.2801 184.016 63.5801 183.256 63.5801C182.466 63.5801 182.036 63.1901 181.786 62.6101L180.406 63.4101C180.796 64.4401 181.736 65.1401 183.206 65.1401Z" fill="white"/>
<path d="M189.339 61.4401V60.0001H188.309V58.6001L186.809 59.0501V60.0001H186.009V61.4401H186.809V63.2101C186.809 64.6101 187.379 65.2001 189.339 65.0001V63.6401C188.679 63.6801 188.309 63.6401 188.309 63.2101V61.4401H189.339Z" fill="white"/>
<path d="M192.491 65.1401C193.961 65.1401 195.141 63.9901 195.141 62.5001C195.141 61.0101 193.961 59.8601 192.491 59.8601C191.021 59.8601 189.841 61.0101 189.841 62.5001C189.841 63.9901 191.021 65.1401 192.491 65.1401ZM192.491 63.6801C191.841 63.6801 191.341 63.2101 191.341 62.5001C191.341 61.7901 191.841 61.3201 192.491 61.3201C193.141 61.3201 193.641 61.7901 193.641 62.5001C193.641 63.2101 193.141 63.6801 192.491 63.6801Z" fill="white"/>
<path d="M197.489 60.8901V60.0001H195.989V65.0001H197.489V62.7401C197.489 61.7501 198.369 61.5001 198.989 61.6001V59.9001C198.359 59.9001 197.689 60.2201 197.489 60.8901Z" fill="white"/>
<path d="M200.884 63.1001H204.434C204.474 62.9101 204.494 62.7101 204.494 62.5001C204.494 60.9901 203.414 59.8601 201.954 59.8601C200.374 59.8601 199.294 61.0101 199.294 62.5001C199.294 63.9901 200.354 65.1401 202.064 65.1401C203.014 65.1401 203.754 64.7901 204.244 64.1101L203.044 63.4201C202.844 63.6401 202.494 63.8001 202.084 63.8001C201.534 63.8001 201.074 63.6201 200.884 63.1001ZM200.854 61.9801C200.994 61.4701 201.374 61.1901 201.944 61.1901C202.394 61.1901 202.844 61.4001 203.004 61.9801H200.854Z" fill="white"/>
<defs>
<clipPath id="clip0_108_79">
<rect width="20" height="20" fill="white" transform="translate(17 48)"/>
</clipPath>
</defs>
</svg>
