<svg width="385" height="12" viewBox="0 0 385 12" fill="none" xmlns="http://www.w3.org/2000/svg">
<mask id="mask0_1_121" style="mask-type:alpha" maskUnits="userSpaceOnUse" x="0" y="0" width="385" height="12">
<rect y="-3.05176e-05" width="385" height="12" fill="#C4C4C4"/>
</mask>
<g mask="url(#mask0_1_121)">
<path d="M57.8283 -2.53799L58.7692 -2.69617L56.9382 -2.92295L57.8159 -3.08895C58.6961 -3.08743 59.8364 -2.83869 60.457 -2.97086C60.5328 -3.09882 59.5744 -3.13989 59.3298 -3.24184C59.1134 -3.34634 58.9368 -3.45016 58.8021 -3.55205C59.2814 -3.55095 59.8084 -3.52631 60.3517 -3.47956C61.0825 -3.40322 61.7994 -3.3661 62.4231 -3.37232C63.6986 -3.3517 64.9308 -3.37227 66.3175 -3.36774L65.8561 -3.6757L67.6433 -3.60365C67.8327 -3.58019 68.0585 -3.61792 68.2446 -3.5889C69.7934 -3.34332 70.4488 -3.47714 71.1923 -3.5881C71.3448 -3.61681 71.5284 -3.63825 71.7384 -3.65185C73.8046 -3.59303 75.6677 -3.24881 77.5284 -3.0721C77.8786 -3.02698 78.2145 -2.96907 78.5123 -2.90246C79.1595 -2.77298 79.8794 -2.66727 80.6062 -2.595C81.3329 -2.52272 82.0433 -2.48619 82.6724 -2.48874C84.0636 -2.4916 85.6353 -2.40596 87.2355 -2.24011C87.7114 -2.18548 88.1875 -2.14944 88.6336 -2.13429C89.0798 -2.11914 89.4861 -2.1252 89.8266 -2.1521L90.9085 -1.9763C91.3774 -2.04764 91.972 -2.08678 92.6563 -2.09134C93.3406 -2.09591 94.1001 -2.06581 94.889 -2.00286C95.7296 -1.93458 96.5834 -1.88856 97.4556 -1.81637C99.2572 -1.67836 101.011 -1.59395 102.661 -1.56578C105.119 -1.48228 107.521 -1.41773 110.001 -1.31364C111.552 -1.26339 113.064 -1.23576 114.527 -1.23088C116.279 -1.21122 118.174 -1.11608 120.121 -0.950049C120.029 -0.794269 119.175 -0.840291 118.602 -0.845563C116.754 -0.871456 114.862 -0.93855 112.96 -0.988952C112.103 -1.00863 111.27 -1.01608 110.466 -1.01125C109.12 -1.01771 107.702 -1.05922 106.235 -1.13507C103.918 -1.21853 101.675 -1.25864 99.5289 -1.25501C99.3606 -1.24884 99.2065 -1.23791 99.069 -1.22239C99.0403 -1.20896 99.0346 -1.19201 99.0525 -1.17318C99.0704 -1.15436 99.1113 -1.13428 99.1712 -1.11487C99.2311 -1.09546 99.3081 -1.07738 99.3947 -1.06234C99.4814 -1.04731 99.5748 -1.03583 99.6661 -1.029C100.518 -0.923431 101.434 -0.810044 102.238 -0.794093C102.269 -0.7929 102.302 -0.790178 102.335 -0.786121C102.367 -0.782064 102.399 -0.776772 102.427 -0.770634C104.227 -0.547761 105.706 -0.585476 107.108 -0.549215C109.435 -0.451215 111.679 -0.405438 113.805 -0.412578C114.126 -0.412093 114.473 -0.399353 114.833 -0.37482C117.059 -0.27537 119.141 -0.264247 120.981 -0.341954C121.738 -0.361641 122.442 -0.405836 123.256 -0.406574C123.757 -0.409616 124.193 -0.437819 124.538 -0.489493C124.883 -0.54117 125.13 -0.615249 125.264 -0.707276C125.607 -0.658825 125.956 -0.615644 126.305 -0.57825C126.514 -0.55687 126.715 -0.55119 126.866 -0.562379C127.017 -0.573566 127.108 -0.600787 127.121 -0.638531C127.183 -0.744239 126.706 -0.797325 126.293 -0.842591C126.542 -0.865262 126.823 -0.878599 127.13 -0.882281C128.854 -0.906435 130.703 -0.877927 132.637 -0.797382C134.138 -0.700973 135.337 -0.779444 136.917 -0.643487C137.107 -0.620026 137.262 -0.654461 137.437 -0.662728C137.891 -0.706267 138.458 -0.716053 139.087 -0.69123C139.716 -0.666407 140.388 -0.607726 141.046 -0.520275C141.865 -0.759196 143.635 -0.486249 144.942 -0.461719C145.345 -0.340215 144.883 -0.361576 144.863 -0.328194C144.843 -0.294813 144.863 -0.328202 144.705 -0.347752C143.4 -0.175683 141.612 -0.138163 139.593 -0.240465C139.219 -0.24004 138.863 -0.232201 138.528 -0.217024C138.021 -0.195541 137.449 -0.197686 136.838 -0.223365C136.169 -0.242223 135.556 -0.233267 135.026 -0.196927C134.721 -0.197518 134.463 -0.179313 134.276 -0.143988C134.09 -0.108662 133.98 -0.0573589 133.957 0.00514971C134.161 0.05334 134.386 0.097434 134.625 0.135682C135.873 0.2867 137.118 0.349209 138.114 0.310913C139.847 0.244929 141.91 0.309319 143.753 0.286793C144.999 0.277667 146.325 0.30366 147.706 0.36429C147.706 0.36429 147.67 0.425489 147.666 0.431052C147.83 0.457549 148.001 0.478808 148.172 0.493613C148.172 0.493613 148.172 0.493614 148.188 0.465796C148.112 0.439082 148.01 0.413952 147.892 0.393313L147.482 0.342481C147.761 0.329253 148.021 0.289868 148.312 0.313932C148.924 0.358638 149.51 0.377511 150.033 0.369431C150.556 0.361351 151.006 0.326477 151.356 0.266908C151.976 0.19056 152.747 0.155841 153.619 0.164991C154.287 0.156656 154.931 0.138742 155.548 0.111337C155.548 0.111337 155.588 0.0445806 155.88 0.00909829C155.603 -0.0346636 155.315 -0.0703997 155.028 -0.0964688C153.779 -0.161598 152.526 -0.221164 151.299 -0.265691C150.847 -0.270502 150.422 -0.263041 150.032 -0.243454C148.952 -0.220535 147.738 -0.253065 146.462 -0.339145C146.462 -0.339145 146.21 -0.370423 146.084 -0.386063C146.442 -0.532818 147.676 -0.3859 148.176 -0.485285C148.479 -0.483477 149.014 -0.470978 148.996 -0.497143C148.954 -0.532057 148.949 -0.564493 148.981 -0.592122C149.013 -0.619751 149.082 -0.641892 149.181 -0.656952C149.281 -0.672014 149.409 -0.679627 149.558 -0.67924C149.706 -0.678853 149.87 -0.670473 150.038 -0.654712C151.443 -0.569449 152.767 -0.545737 153.928 -0.585032C154.368 -0.584274 154.861 -0.559002 155.298 -0.55268C155.565 -0.545064 155.81 -0.549299 156.017 -0.565151C157.072 -0.681893 158.492 -0.690419 160.064 -0.589449C160.824 -0.553146 161.533 -0.548292 162.157 -0.575133C162.6 -0.579937 162.788 -0.496938 163.104 -0.457837L164.444 -0.375413L162.723 -0.272132C163.091 -0.0354479 163.383 0.0425941 163.984 0.0573398C164.862 0.0796067 165.716 0.0896664 166.542 0.0874565C167.153 0.0855109 167.658 0.0345405 168.485 0.125074C168.631 0.13984 168.772 0.144619 168.884 0.138611C169.853 0.0582352 171.02 0.0397891 172.305 0.0845322C172.97 -0.0659763 174.103 0.0803572 175.152 0.198261C175.49 0.0848889 174.877 0.0328471 174.511 -0.0363282C175.388 -0.0292468 176.272 -0.0332908 177.177 -0.0167367C177.449 -0.022762 177.76 -0.0124535 178.086 0.0133801C178.412 0.0392126 178.743 0.079862 179.054 0.132152C179.205 0.165938 179.388 0.191366 179.564 0.203157C179.74 0.214947 179.896 0.212197 179.999 0.195475C180.469 0.146162 181.221 0.191582 181.61 0.108283C181.748 0.0891257 181.945 0.0864513 182.166 0.100729C182.387 0.115004 182.618 0.145305 182.817 0.186202C182.599 0.198962 182.405 0.219056 182.24 0.246039C181.645 0.333694 181.864 0.480158 182.619 0.693089C183.778 0.681378 184.962 0.684703 186.036 0.644573C186.635 0.608548 187.369 0.61981 188.155 0.677094C188.941 0.734376 189.748 0.835411 190.486 0.968833C190.753 1.02014 191.058 1.05567 191.339 1.06838C191.62 1.08109 191.858 1.07004 192.005 1.03742C192.096 0.999697 192.124 0.951954 192.087 0.898331L191.329 0.804495C191.329 0.804495 191.359 0.754422 191.366 0.743296L192.455 0.734882C193.031 0.734589 193.632 0.74934 194.177 0.745137C194.977 0.717193 195.891 0.732769 196.861 0.790898C197.756 0.850504 198.636 0.895558 199.492 0.925664C200.321 0.956651 200.922 0.857864 201.71 0.842087C202.307 0.830195 202.963 0.842904 203.654 0.879715C204.847 0.945004 205.942 0.945126 206.839 0.880067C207.885 1.23059 208.393 1.28758 209.364 1.19287L209.821 1.16581L209.946 1.24099L210.295 1.22446C210.947 1.20973 211.6 1.19501 212.281 1.18976C213.227 1.22229 214.25 1.30981 215.248 1.44377C215.437 1.46723 215.695 1.54694 215.861 1.60934C216.028 1.67175 216.39 1.86001 216.657 1.98256C216.366 2.07203 216.045 2.15758 215.814 2.26042C215.791 2.278 215.793 2.29895 215.821 2.3216C215.848 2.34424 215.9 2.36796 215.972 2.39084C216.045 2.41371 216.135 2.4351 216.236 2.4533C216.338 2.4715 216.447 2.48599 216.556 2.49562C216.768 2.51636 216.978 2.53018 217.176 2.53653C218.151 2.54747 219.085 2.53934 219.969 2.51221C220.291 2.47395 220.733 2.47031 221.224 2.50189C221.715 2.53347 222.227 2.59845 222.678 2.68652C223.834 2.63365 225.178 2.64927 226.616 2.7323C228.137 2.6818 229.974 2.78393 231.395 2.67328C231.362 2.72892 231.509 2.8247 231.713 2.87989C232.037 2.96372 232.403 3.04141 232.797 3.10967L235.802 3.24294C235.914 3.31147 236.054 3.38084 236.221 3.45015C236.335 3.5049 236.534 3.55848 236.775 3.59952C237.017 3.64056 237.282 3.66585 237.514 3.67002C238.112 3.69032 238.613 3.64492 239.326 3.7571C238.228 3.86315 236.748 3.84906 235.148 3.71735C233.645 3.61717 232.199 3.56711 230.864 3.56901C230.424 3.56825 229.844 3.5741 229.707 3.6347C229.402 3.80596 228.605 3.77889 227.675 3.7473C226.944 3.71272 226.277 3.7166 225.727 3.75862C225.178 3.80065 224.763 3.87962 224.515 3.98904C224.453 4.09474 224.603 4.18497 225.244 4.24648L227.911 4.49313C228.304 4.46142 228.676 4.42388 229.028 4.38067C229.619 4.32328 230.35 4.30753 231.163 4.33464C231.975 4.36175 232.848 4.43099 233.713 4.53698C234.155 4.59172 234.597 4.64646 234.918 4.62045C235.199 4.59057 235.458 4.5548 235.693 4.5134C235.74 4.48565 235.759 4.45371 235.749 4.41881C235.919 4.43504 236.089 4.45614 236.254 4.48138C237.57 4.77582 238.59 4.77072 239.516 4.69435C239.767 4.67165 239.958 4.63556 240.212 4.6073C240.466 4.57903 240.555 4.54235 240.786 4.55302C242.627 4.64959 243.157 4.32706 244.708 4.34001C244.783 4.32741 244.83 4.30858 244.844 4.28524C244.858 4.26191 244.838 4.23483 244.787 4.20649C244.677 4.1809 244.551 4.1589 244.418 4.1425C244.286 4.1261 244.152 4.11584 244.029 4.11265C243.315 4.07126 242.685 4.08395 242.246 4.14855C241.935 4.17495 241.605 4.19598 241.26 4.21154L239.706 3.74447C241.211 3.78729 242.634 3.78701 243.943 3.74364C244.228 3.71928 244.712 3.76124 245.114 3.76922L248.07 3.81287C248.678 3.81649 249.196 3.74327 250.043 3.91395C250.043 3.91395 250.603 3.94148 250.752 3.91817C250.902 3.89487 251.564 3.74992 251.959 3.6555C252.417 3.68242 253.052 3.75506 253.337 3.73071C253.836 3.67088 254.268 3.5942 254.625 3.50202L256.411 3.63361C256.409 3.75051 256.344 3.86048 256.216 3.96186C256.077 4.05963 256.082 4.17699 256.23 4.30434C256.379 4.4317 256.666 4.56543 257.07 4.69462L258.833 5.37882C259.121 5.42464 259.428 5.45548 259.712 5.46716C259.996 5.47884 260.243 5.47079 260.421 5.4441C261.18 5.36487 262.03 5.30293 262.788 5.2237C263.767 5.34491 263.515 5.54069 264.227 5.71242L266.531 5.99785C266.883 6.26235 267.241 6.51572 266.172 6.60427C265.96 6.61976 266.103 6.72111 265.909 6.76276C266.74 6.96126 267.654 7.02068 268.496 7.14294C268.828 7.23086 269.106 7.32394 269.316 7.41766C269.547 7.55879 270.014 7.70294 270.617 7.81901C271.221 7.93507 271.911 8.01372 272.54 8.03798C273.596 8.11229 274.676 8.22389 275.734 8.36779C276.095 8.41782 276.466 8.45428 276.822 8.4747C277.178 8.49512 277.511 8.49903 277.798 8.48616C278.821 8.4635 279.687 8.38559 280.34 8.25749C280.985 8.14878 281.855 8.09638 282.87 8.10505C284.607 8.3201 284.957 8.64415 286.008 8.92957L284.193 8.96157C284.127 9.07284 284.247 9.21314 283.503 9.21057C282.759 9.208 283.136 9.31447 283.377 9.42198C283.462 9.47607 283.628 9.5317 283.847 9.57947C284.066 9.62723 284.324 9.66419 284.578 9.68409L286.123 9.8217C286.671 9.87408 287.201 9.89644 287.655 9.88634C288.109 9.87624 288.47 9.83407 288.698 9.76445C288.96 9.69835 289.321 9.65363 289.759 9.63305C290.317 9.57913 290.776 9.49893 291.119 9.39549L293.301 9.5462C293.393 9.44225 293.693 9.36936 294.149 9.33987C294.605 9.31036 295.189 9.32605 295.803 9.38428L297.273 9.47679C298.907 9.57771 299.266 9.54449 299.745 9.25142L297.784 8.72796C298.069 8.59008 298.344 8.46888 298.62 8.34769C298.131 8.17523 297.48 8.01212 296.731 7.87491C296.032 7.72748 295.314 7.58469 294.579 7.44708C293.781 7.30648 292.938 7.18422 291.948 7.02571C291.775 6.97444 291.524 6.8836 291.203 6.79609C290.882 6.71104 290.547 6.62767 290.199 6.54631C290.265 6.43504 290.324 6.3349 290.197 6.20573C290.807 6.24694 291.437 6.31903 292.031 6.41548C292.625 6.51194 293.163 6.62973 293.597 6.75824C293.67 6.78102 293.76 6.80243 293.86 6.82101C293.96 6.83958 294.068 6.8549 294.178 6.86591C295.249 6.94486 295.761 7.10982 296.285 7.31207C296.638 7.41546 297.093 7.50728 297.587 7.57478C298.534 7.69208 299.461 7.84277 300.367 7.97286C300.644 8.0162 300.932 8.05188 301.219 8.07842C302.166 8.16281 303.118 8.28081 304.029 8.42642C304.326 8.46343 304.611 8.5124 304.86 8.56925C305.11 8.6261 305.316 8.68916 305.462 8.75319C305.236 8.82333 305.115 8.91187 305.104 9.01347C305.065 9.08023 305.73 9.21633 306.044 9.31498C306.358 9.41362 305.742 9.36714 305.533 9.37707C304.674 9.39615 304.515 9.43614 305.029 9.65508C305.201 9.72393 305.315 9.79282 305.364 9.85746C305.413 9.9221 305.396 9.98113 305.315 10.0309C305.193 10.2367 304.821 10.4057 304.566 10.6071C304.962 10.7397 305.624 10.8813 305.696 11.0455C305.731 11.082 305.804 11.1206 305.91 11.1585C306.017 11.1965 306.154 11.2329 306.311 11.2651C306.727 11.3346 307.105 11.4177 307.416 11.508C307.726 11.5983 307.962 11.6933 308.104 11.7857C308.15 11.8239 308.262 11.8645 308.418 11.8992C308.573 11.934 308.76 11.9604 308.942 11.9731C309.158 11.9887 309.352 11.9866 309.484 11.9673C309.615 11.948 309.673 11.9129 309.647 11.8693C309.652 11.7874 309.624 11.702 309.561 11.6139C309.597 11.5527 309.634 11.4915 309.49 11.3901C310.138 11.4271 310.817 11.5012 311.455 11.6044C312.093 11.7076 312.664 11.836 313.108 11.9755C313.599 12.1199 314.051 12.2715 314.595 12.4404C314.483 12.6295 314.483 12.6295 315.64 12.964L321.779 13.127L323.037 13.3486C324.21 13.5416 324.489 13.5284 325.226 13.4286L325.722 13.3348C326.764 13.4638 327.964 13.6124 328.615 13.3706C328.827 13.5282 328.965 13.5811 328.917 13.605C328.606 13.8376 328.065 14.0349 327.317 14.1892C327.126 14.2253 326.992 14.2803 326.769 14.3125C326.052 14.4941 325.886 14.7747 326.304 15.0969C326.512 15.2395 326.814 15.3855 327.2 15.5303C326.635 15.7312 325.887 15.8976 324.975 16.0251C324.201 16.1238 323.564 16.2559 323.082 16.4177C322.649 16.5808 322 16.7035 321.174 16.7786C320.754 16.8105 320.448 16.8735 320.286 16.9612C320.238 17.1989 320.349 17.4533 320.616 17.7188C320.667 17.7996 320.81 17.8869 321.035 17.9738C321.26 18.0607 321.56 18.1449 321.912 18.2197C321.912 18.2197 322.082 18.2765 322.163 18.3105C322.231 18.5983 321.977 18.8519 321.418 19.0542C321.326 19.1117 321.138 19.1531 320.875 19.1742C320.612 19.1953 320.283 19.1951 319.923 19.1738C319.164 19.1395 318.455 19.1352 317.721 19.116C316.93 19.0887 316.233 19.1102 315.704 19.1781C315.175 19.246 314.833 19.3579 314.714 19.5019C314.706 19.5427 314.683 19.5818 314.644 19.6188C314.622 19.6378 314.61 19.6583 314.608 19.68L316.294 20.1515L314.387 20.3393C314.275 20.5285 315.19 20.6419 315.649 20.7823L315.365 20.8607C315 20.905 314.508 20.8202 314.063 20.771L313.621 20.7163L313.568 20.8053C313.293 20.9265 312.29 20.7902 311.898 20.8791C311.507 20.968 311.786 21.0683 312.373 21.1648C312.78 21.2366 313.218 21.2938 313.653 21.3322C314.088 21.3705 314.509 21.3891 314.885 21.3863C315.109 21.3768 315.294 21.3551 315.431 21.3226C316.222 21.184 317.097 21.0648 318.048 20.966C318.777 20.8772 319.69 20.8394 320.723 20.8553C321.026 20.8486 321.391 20.8697 321.755 20.9147C322.119 20.9598 322.458 21.0259 322.712 21.1017L323.247 21.1141C323.247 21.1141 323.539 21.1922 323.498 21.205C323.294 21.4362 323.531 21.7189 324.172 22.0111L323.614 22.0376C322.817 22.0105 323.323 22.1866 323.203 22.2733C322.637 22.2569 321.901 22.1837 321.633 22.2938L321.231 22.2858L321.388 22.3053L321.579 22.2692L322.329 22.4338C321.974 22.4614 321.716 22.4953 321.403 22.5101C321.229 22.5231 321.091 22.5459 320.997 22.5774C320.903 22.6088 320.854 22.6481 320.854 22.693C320.855 22.762 320.761 22.8201 320.582 22.8617C320.403 22.9033 320.145 22.9271 319.832 22.9307C319.458 22.9322 319.244 23.0072 319.025 23.0338L319.977 23.4861C319.977 23.4861 319.503 23.4275 319.761 23.5072L319.794 23.4516L320.371 23.5648C320.787 23.664 321.077 23.6881 321.323 23.617C321.568 23.5459 321.512 23.6405 321.63 23.6132C321.587 23.6856 321.32 23.7361 321.091 23.7794C320.826 23.8134 320.527 23.8384 320.2 23.8541C320.79 24.1721 320.819 24.1816 319.956 24.2658C319.092 24.35 319.39 24.4765 318.668 24.4945C317.945 24.5125 318.767 24.7277 319.25 24.7697C319.609 24.7973 319.974 24.8402 320.321 24.8956C320.669 24.951 320.99 25.0175 321.263 25.0906L321.118 25.3354C320.905 25.3151 320.692 25.2888 320.486 25.2572C319.786 25.1227 319.15 24.9961 318.527 25.0743L318.824 25.2603L316.651 25.1525C316.707 25.2919 317.039 25.4507 317.575 25.5953C317.494 25.6748 317.444 25.7584 317.426 25.8457C317.39 25.9069 317.176 25.8684 317.036 25.875C316.539 25.8852 316.13 25.9267 315.847 25.9958C315.564 26.0648 315.415 26.1593 315.412 26.271C315.356 26.3656 316.121 26.5619 316.599 26.5554C317.793 26.5743 319.085 26.647 320.403 26.7697C321.207 26.7857 321.32 26.537 322.643 26.7068C322.669 26.8216 322.5 26.9146 322.16 26.9717C321.821 27.0287 321.33 27.0468 320.761 27.0231C321.085 27.2781 322.875 27.3446 322.954 27.6112C322.508 27.5924 322.032 27.5481 321.571 27.4827C321.111 27.4173 320.682 27.333 320.329 27.2383C320.252 27.2149 320.157 27.1934 320.05 27.1757C319.944 27.158 319.83 27.1447 319.72 27.1369C319.609 27.1292 319.506 27.1274 319.419 27.1316C319.332 27.1358 319.264 27.1459 319.222 27.161C319.47 27.2574 319.743 27.3688 320.054 27.473C320.365 27.5772 320.44 27.6223 320.664 27.6441C322.337 27.8514 323.133 28.2246 324.58 28.4696C324.959 28.5165 325.006 28.6656 324.678 28.6488C324.365 28.6319 324.081 28.6341 323.86 28.6552C323.638 28.6762 323.486 28.7152 323.421 28.7679C323.178 28.8293 322.876 28.8782 322.521 28.9133C324.006 29.2963 325.776 29.6347 327.666 29.8967C328.023 29.9485 328.397 29.9801 328.73 29.9868C329.785 29.9872 330.904 30.0176 332.066 30.0774C332.477 30.0937 332.858 30.0922 333.186 30.0729C334.264 30.0272 335.12 30.1272 335.902 30.4092L337.195 30.8561C337.153 30.9284 336.935 31.009 336.768 31.1197L337.779 31.3583L345.492 30.8087L347.04 31.3409L349.261 31.3113C349.431 31.3267 349.602 31.3478 349.766 31.3738C350.215 31.531 350.566 31.682 351.053 31.8319C351.54 31.9818 352.411 32 353.018 32.1767C353.625 32.3534 354.232 32.357 354.983 32.462C355.054 32.5987 354.981 32.7219 354.769 32.8236C354.7 32.9405 354.318 33.0126 354.252 33.1239C354.26 33.2364 354.118 33.3318 353.84 33.4017C353.562 33.4715 353.156 33.5135 352.66 33.5238C351.27 33.7633 349.594 33.9338 347.683 34.0302C347.515 34.0372 347.376 34.0534 347.274 34.0778C347.172 34.1021 347.11 34.1341 347.091 34.1718C347.094 34.281 346.966 34.3753 346.718 34.4479C346.47 34.5205 346.107 34.5695 345.656 34.5913C345.536 34.5957 345.446 34.6094 345.396 34.6308C345.225 34.6445 345.1 34.6708 345.034 34.7071C344.968 34.7434 344.963 34.7886 345.019 34.8381C345.074 34.8876 345.19 34.9399 345.353 34.9899C345.516 35.0399 345.722 35.0859 345.951 35.1235C346.283 35.184 346.622 35.242 346.966 35.2971C346.947 35.3304 346.605 35.3358 346.654 35.3659C346.79 35.4619 346.821 35.5518 346.746 35.6286C346.671 35.7053 346.492 35.7668 346.223 35.8081L348.066 36.5859C349.185 36.6936 350.283 36.8763 351.151 37.0993C351.152 37.1358 351.102 37.1664 351.006 37.1881C350.91 37.2097 350.771 37.2216 350.603 37.2226C350.153 37.2385 349.728 37.2695 349.243 37.287C348.947 37.3002 348.7 37.3291 348.518 37.3721C348.335 37.4151 348.221 37.4713 348.18 37.5375L349.262 37.8269C348.916 37.8974 348.658 37.9312 348.429 37.9745C348.559 38.0654 348.782 38.1595 349.082 38.2494C349.381 38.3393 349.748 38.4226 350.155 38.4929C350.265 38.5074 350.376 38.5179 350.483 38.524C350.59 38.5301 350.69 38.5315 350.778 38.5282C351.617 38.429 352.597 38.6042 353.549 38.7699C354.502 38.9356 355.019 39.0355 355.722 39.1643L357.067 39.1817C357.407 39.2427 357.711 39.3144 357.954 39.3912C358.197 39.4679 358.372 39.5475 358.465 39.6236C358.393 39.746 357.755 39.6789 357.375 39.6916C356.473 39.7677 355.287 39.7515 354.013 39.6455C353.698 39.6064 353.374 39.638 353.067 39.6417C352.404 39.6569 351.767 39.6817 351.159 39.716C350.758 39.7478 350.384 39.7873 350.038 39.834C349.946 39.9898 351.4 40.1101 350.575 40.1871C350.859 40.2223 350.965 40.2713 351.111 40.2535C352.047 40.3547 352.969 40.4047 353.771 40.3978C355.309 40.3763 357.055 40.4473 358.867 40.6049C360.822 40.7682 362.698 40.8368 364.339 40.805C364.965 40.8031 365.663 40.8366 366.383 40.9028C367.232 40.9945 368.075 41.0521 368.858 41.072C369.117 41.0727 369.406 41.0883 369.7 41.1175C369.995 41.1468 370.288 41.1888 370.554 41.2402C370.531 41.2792 370.277 41.3075 370.334 41.3264C371.144 41.6178 371.472 41.9213 372.719 42.219C373.571 42.3246 374.55 42.4458 375.107 42.3058C375.665 42.1658 375.465 42.0455 374.356 41.6872C374.596 41.682 374.886 41.6988 375.175 41.7345C375.463 41.7702 375.732 41.8227 375.934 41.8827L376.894 42.1508L377.758 42.4072C377.682 42.5352 377.623 42.6353 377.56 42.741C377.461 42.8533 377.57 42.99 377.871 43.1318C378.052 43.2093 378.211 43.2868 378.344 43.3636C378.884 43.6707 379.041 43.961 378.796 44.2019C378.326 44.5482 377.672 44.8669 376.842 45.1543C375.965 45.4338 375.484 45.7864 374.762 46.091C374.393 46.2297 373.945 46.3541 373.423 46.4627C372.433 46.7043 371.348 46.9342 370.354 47.1814C369.36 47.4286 368.238 47.6062 367.135 47.8099C365.492 48.0517 363.716 48.2605 361.817 48.4352C360.642 48.5883 359.435 48.7374 358.348 48.9133C357.064 49.1116 355.556 49.254 353.861 49.337C352.364 49.4363 351.026 49.5832 349.874 49.7748C349.753 49.7955 349.658 49.8219 349.59 49.8531C349.383 50.0486 348.801 50.1863 347.935 50.2453C347.987 50.3025 348.055 50.3607 348.136 50.4195C348.257 50.4897 348.282 50.5554 348.208 50.6081C348.135 50.6607 347.966 50.6979 347.724 50.7149C347.031 50.7633 346.455 50.8455 346.021 50.9578C345.862 50.986 345.763 51.0271 345.733 51.0775C345.704 51.1278 345.743 51.1861 345.85 51.2471C345.944 51.31 345.951 51.3678 345.87 51.4131C345.788 51.4584 345.623 51.4891 345.394 51.5013C344.807 51.5607 344.179 51.6086 343.513 51.6445C342.096 51.7237 340.449 51.7228 338.669 51.6417C338.48 51.6183 338.289 51.6544 338.068 51.627C336.809 51.5362 335.641 51.5221 334.703 51.5865C333.604 51.6116 332.455 51.6066 331.295 51.6183C329.621 51.6105 328.076 51.6582 326.704 51.7603C325.136 51.6617 324.255 51.8332 322.931 51.8365C321.709 51.8541 320.551 51.8964 319.468 51.9629C317.721 52.0512 315.981 52.1283 314.259 52.2316C312.644 52.2808 311.157 52.3749 309.823 52.5122C309.312 52.5743 308.387 52.4776 308.038 52.6077C307.69 52.7378 306.988 52.7224 306.42 52.7655L304.628 52.8721C304.32 52.8975 303.982 52.9136 303.617 52.9201C301.952 52.9288 300.798 53.1024 299.252 53.1379L299.094 53.1183C296.349 53.3765 293.208 53.5182 289.763 53.5392C287.751 53.6184 285.55 53.6146 283.415 53.6727C282.905 53.7887 281.703 53.6457 281.064 53.7517C280.425 53.8577 279.381 53.7882 278.558 53.8057C277.734 53.8231 276.929 53.8667 276.049 53.8652C275.284 53.8657 274.639 53.913 274.171 54.0029C273.103 54.1514 271.802 54.2388 270.325 54.261C268.37 54.2996 266.522 54.3872 264.534 54.368C264.563 54.4762 264.441 54.5684 264.181 54.6348C263.921 54.7013 263.533 54.7398 263.056 54.7463C260.931 54.7876 259.003 54.8952 256.849 54.9271L256.273 54.9274L249.831 54.9895C248.096 55.0015 246.424 55.0213 244.654 55.035C243.991 54.9529 243.975 55.0942 243.516 55.0673C243.388 54.9977 243.237 54.967 243.011 55.0047L242.961 55.0882L235.61 55.1989C232.732 55.2798 229.704 55.3041 226.553 55.2715C225.805 55.2797 225.108 55.3074 224.471 55.3541C223.88 55.3711 223.265 55.3786 222.628 55.3766C221.766 55.3556 220.924 55.345 220.105 55.3448C217.951 55.3767 215.691 55.3595 213.332 55.3361C210.974 55.3128 209.187 55.3543 207.088 55.3511C205.667 55.3482 204.252 55.3342 202.78 55.3013C202.078 55.2859 201.212 55.2026 200.485 55.1722C199.757 55.1418 199.52 55.1423 199.424 55.1901C199.107 55.324 198.311 55.2374 197.675 55.2243C196.434 55.2021 196.258 55.1563 195.921 54.81L197.443 54.7C197.817 54.6645 198.286 54.6582 198.806 54.6819C199.326 54.7055 199.88 54.7582 200.413 54.8349C200.623 54.8678 200.843 54.8938 201.059 54.9114C201.276 54.9289 201.485 54.9378 201.674 54.9373C203.21 54.9186 204.725 54.8792 206.201 54.847L206.417 54.826L206.43 54.5171C206.235 54.4868 206.033 54.4617 205.831 54.4429L198.426 54.2424C196.727 54.1932 194.963 54.0822 193.296 54.037C191.628 53.9917 190.729 53.964 189.436 53.9172C188.89 53.8905 188.333 53.8555 187.769 53.8124C187.802 53.7826 187.821 53.751 187.826 53.7178C187.855 53.6677 187.895 53.601 187.655 53.5474C187.394 53.4718 187.045 53.4073 186.678 53.3667C186.333 53.3398 185.999 53.3246 185.688 53.3217C184.186 53.2958 182.471 53.1327 180.908 52.8671L180.363 53.0443C178.016 52.9448 175.634 52.8468 173.182 52.7522C172.691 52.7264 172.176 52.6769 171.675 52.6074C171.139 52.5409 170.645 52.4021 170.08 52.3262C169.522 52.2715 168.967 52.2289 168.427 52.1991C168.573 52.1535 168.766 52.117 168.999 52.0908C169.229 52.0817 169.396 52.0532 169.477 52.0095C169.558 51.9658 169.548 51.9092 169.448 51.8478C169.274 51.7426 169.197 51.6435 169.577 51.6309C169.928 51.6069 170.18 51.5549 170.302 51.4811C170.423 51.4073 170.41 51.3147 170.264 51.2143C170.2 51.1557 170.155 51.0982 170.129 51.0423L169.971 51.0228C169.451 50.815 168.411 50.7399 167.664 50.5698C167.312 50.5205 166.947 50.4922 166.628 50.4892C165.802 50.4527 164.998 50.4367 164.145 50.3907C163.737 50.3695 163.31 50.3309 162.89 50.2771C162.29 50.2029 162.227 50.195 161.879 49.925C162.42 49.9297 162.849 49.8893 163.093 49.8108C163.337 49.7322 163.382 49.6202 163.219 49.4937C162.773 49.2175 162.301 48.9262 160.283 48.73C160.941 48.7203 161.575 48.7011 162.181 48.6724C162.357 48.6662 162.489 48.6459 162.559 48.6142C162.629 48.5825 162.634 48.541 162.573 48.4951C162.511 48.4492 162.387 48.4011 162.216 48.3574C162.046 48.3136 161.837 48.2763 161.618 48.2503C160.552 48.094 159.441 47.9895 158.408 47.9483C157.538 47.9301 156.752 47.9403 155.736 47.9399L154.536 47.7913C154.556 47.7579 154.38 47.7122 154.424 47.6938C154.729 47.5226 155.066 47.3552 155.412 47.1712C154.859 47.0718 154.38 46.9518 154.029 46.825C153.679 46.6982 153.472 46.5696 153.431 46.454C153.401 46.4192 153.409 46.3874 153.454 46.361C153.499 46.3346 153.58 46.3141 153.691 46.3011C154.007 46.2788 154.251 46.2361 154.403 46.1763C154.556 46.1166 154.614 46.0414 154.573 45.9565L153.64 45.6439C150.831 45.4208 148.073 45.2614 145.416 45.1687L143.017 45.0986C142.728 45.015 142.818 44.9783 143.09 44.9762C143.362 44.9741 144.128 44.9973 144.663 45.0098C145.125 45.0262 145.535 45.0154 145.854 44.9785C146.172 44.9416 146.389 44.8798 146.482 44.7991L145.677 44.4426C145.716 44.3758 145.772 44.2813 146.209 44.2876C146.508 44.2799 146.727 44.2462 146.833 44.1922C146.939 44.1381 146.925 44.0668 146.792 43.9896C146.772 43.9337 146.802 43.8829 146.881 43.8394C147.527 43.8358 148.17 43.8377 148.756 43.8207C149.029 43.8151 149.26 43.7944 149.432 43.7601C149.605 43.7258 149.715 43.6787 149.755 43.622C149.776 43.5666 149.725 43.5035 149.605 43.4378C149.485 43.3721 149.3 43.3056 149.064 43.2438C148.146 43.1672 147.305 43.1662 146.728 43.241C146.522 43.2996 146.191 43.3317 145.779 43.3329C145.367 43.3341 144.893 43.3044 144.419 43.2478C143.877 43.1825 143.336 43.1538 142.894 43.1668C142.451 43.1799 142.136 43.2339 142.005 43.319C141.449 43.2859 140.955 43.2606 140.469 43.2243C139.894 43.1783 139.352 43.1648 138.899 43.1851C138.175 43.1995 137.394 43.1911 136.576 43.1601C134.215 43.0828 131.852 43.011 129.567 42.9788C128.962 42.9696 128.439 42.9944 127.841 42.9741C127.243 42.9538 126.77 43.0087 126.022 42.8982C125.88 42.881 125.737 42.87 125.604 42.8659C125.471 42.8619 125.352 42.865 125.257 42.875C123.944 42.9624 122.404 42.9748 120.728 42.9113C118.433 42.8958 116.053 42.8519 113.755 42.8419C113.08 42.8505 112.443 42.8735 111.85 42.9106C111.399 42.933 110.926 42.9482 110.434 42.9561C110.057 42.9632 109.696 42.9424 109.76 43.0638C109.823 43.1851 109.259 43.1092 108.933 43.0868C107.814 43.0279 106.671 42.9483 105.516 42.8487C104.378 42.7405 103.262 42.6775 102.237 42.6635C101.496 42.6554 100.732 42.6862 99.7801 42.5205C99.8164 42.4593 99.8526 42.3981 100.06 42.3342C99.2833 42.1584 98.3972 42.0071 97.475 41.8929C96.5527 41.7786 95.6207 41.7047 94.7562 41.6773L93.564 41.3445C93.2705 41.3055 92.9708 41.277 92.6832 41.2609C92.3957 41.2448 92.1262 41.2413 91.8912 41.2508C91.7097 41.2556 91.4884 41.2433 91.268 41.216C91.0476 41.1887 90.843 41.1483 90.6916 41.1022C90.4652 41.0436 90.1887 40.9931 89.8967 40.9569C89.6046 40.9208 89.3101 40.9006 89.0499 40.8989C88.2308 40.8627 87.3564 40.7792 86.5163 40.6568C86.2983 40.585 86.1617 40.5109 86.1233 40.4436C86.085 40.3762 86.1466 40.3185 86.3005 40.2777C86.5487 40.2056 86.688 40.1137 86.7101 40.0076C86.7322 39.9016 86.6366 39.7835 86.429 39.6606C86.3227 39.5851 86.2872 39.5137 86.3246 39.4506C86.362 39.3875 86.4716 39.334 86.6466 39.2934C87.3001 39.1056 87.1253 39.0003 86.0561 38.6888C85.8825 38.6368 85.6731 38.5883 85.4413 38.5462C85.2096 38.5041 84.9605 38.4695 84.7099 38.4444C84.1219 38.3936 83.5419 38.3558 82.9806 38.3317C82.6649 38.2926 82.3412 38.3242 81.9774 38.309C80.1586 38.2331 79.8924 38.1105 79.3034 37.8464L78.8741 37.6559C78.0779 37.5016 77.2072 37.3734 76.3246 37.2806C75.442 37.1878 74.5696 37.1328 73.7702 37.1193C73.4524 37.1183 73.0871 37.092 72.7302 37.0443C71.5688 36.8985 70.3927 36.7976 69.2797 36.7483C68.5861 36.7206 67.8385 36.6487 67.1266 36.5415C66.4147 36.4343 65.7687 36.2962 65.2664 36.1438C64.8152 36.0065 64.2249 35.8833 63.5777 35.7913C62.82 35.6974 62.7498 35.5872 63.1729 35.5023C63.596 35.4173 64.3047 35.308 64.9337 35.2187C65.1526 35.1884 65.2882 35.139 65.3254 35.0761C65.3627 35.0133 65.3001 34.9393 65.1447 34.8626C65.0449 34.7314 65.0276 34.6068 65.0932 34.492C65.1283 34.4443 65.1041 34.3895 65.0222 34.3315C64.9404 34.2735 64.8028 34.2135 64.6187 34.1556C64.4346 34.0977 64.2084 34.0433 63.9552 33.9959C63.702 33.9486 63.4277 33.9094 63.1509 33.8812C61.9828 33.7365 60.8463 33.5957 59.6551 33.49C59.1559 33.4402 58.6572 33.3784 58.1713 33.3062C57.1766 33.1277 56.1125 32.9797 55.0407 32.8707C54.532 32.822 54.0347 32.7368 53.6563 32.6336C52.463 32.3555 51.3635 32.0631 50.3776 31.7617C50.1399 31.6682 49.8291 31.577 49.4643 31.4938C49.0996 31.4106 48.6889 31.3372 48.2581 31.2782C47.9109 31.2352 47.6282 31.1405 47.3605 31.0775C47.166 30.9315 47.1452 30.7965 47.3001 30.6852C47.4551 30.5738 47.7806 30.4897 48.2462 30.4407C48.6877 30.3819 49.1009 30.3136 49.4825 30.2414C49.9426 30.1831 50.4895 30.148 51.103 30.1376C51.8295 30.1062 52.3668 30.0167 52.6447 29.8806C50.6557 29.6343 48.7643 29.2806 47.021 29.3633L45.6964 29.1395C45.7491 29.0505 45.7953 28.9726 45.8381 28.9003C46.1532 28.7686 46.2516 28.6026 46.125 28.4162C46.0206 28.3261 46.0301 28.2441 46.1523 28.1784C46.2745 28.1128 46.5051 28.066 46.8209 28.0426C48.6915 27.8025 50.8546 27.6404 52.6088 27.368C53.1588 27.3168 53.8027 27.2936 54.5133 27.2993C55.2008 27.2829 55.172 27.1599 54.3809 27.0082C53.9368 26.9289 53.4842 26.8529 53.0247 26.7805C50.9986 26.7684 50.1732 27.132 47.8611 27.0308L46.7895 26.5517C46.4997 26.5443 46.2184 26.5413 45.9475 26.5429L42.0706 26.7376C41.7477 26.7474 41.4963 26.7807 41.3451 26.8337C41.1939 26.8868 41.1488 26.9574 41.215 27.0377C41.2412 27.1359 41.1878 27.226 41.0567 27.3048C40.9722 27.3599 41.0263 27.4331 41.2071 27.5085C41.6147 27.6785 41.0917 27.7033 40.7614 27.746C40.677 27.7501 40.5797 27.7497 40.475 27.7446C40.3704 27.7396 40.2606 27.7301 40.1519 27.7166C40.0432 27.7032 39.9379 27.6861 39.842 27.6663C39.7462 27.6465 39.6616 27.6244 39.5934 27.6013C39.0114 27.4396 38.5024 27.2691 37.9304 27.0908C38.3365 26.9201 37.8587 26.64 38.4924 26.4855C38.5633 26.4547 38.5916 26.4171 38.5757 26.3751C38.5599 26.3331 38.5 26.2875 38.4 26.2412C38.1419 26.1216 38.019 26.0051 38.0437 25.9033C38.0683 25.8015 38.2396 25.718 38.5403 25.6614L38.5766 25.6002C37.7835 25.3945 37.9936 25.2115 37.6822 24.9937L36.9193 24.8515C35.0213 24.5089 35.018 24.5145 33.3839 24.5271C33.0545 24.3967 33.473 24.3769 33.7868 24.362L36.4151 24.2157C38.1334 24.118 39.9018 24.0504 41.8214 24.0134C43.741 23.9764 45.8811 23.8533 47.8652 23.7646C47.9655 23.7577 48.0423 23.7442 48.089 23.725C48.1357 23.7059 48.151 23.6817 48.1338 23.6546C48.0549 23.6252 47.9516 23.5969 47.8317 23.5717C47.7117 23.5465 47.5781 23.5251 47.4406 23.509C46.8092 23.4308 46.1613 23.3804 45.4885 23.315L44.2341 23.2014L43.8482 23.0521C43.5971 22.9613 43.4255 22.8505 43.0914 22.7852C42.8161 22.7365 42.5172 22.6996 42.2259 22.6782C41.9346 22.6568 41.6616 22.6518 41.4352 22.6637C40.8076 22.6935 40.2398 22.7366 39.6405 22.7758C39.0411 22.8151 38.7108 22.8578 38.1911 22.877C37.1352 22.8858 36.1147 22.9089 35.1341 22.9463C34.3082 23.0348 33.5442 23.1396 32.8471 23.2602C32.4122 23.3079 32.0055 23.365 31.2629 23.3029C30.9106 23.2466 30.6067 23.1726 30.4051 23.094C30.2035 23.0155 30.1173 22.9375 30.1617 22.8739C30.2015 22.824 30.3143 22.7845 30.4894 22.7592C30.6645 22.7339 30.8961 22.7235 31.1624 22.7291C31.9078 22.7199 32.5971 22.689 33.2164 22.6371C34.0783 22.543 35.1276 22.5024 36.303 22.5177C36.7016 22.5313 36.9688 22.4808 37.3175 22.4642C37.6662 22.4477 37.9616 22.4067 38.3503 22.4369C39.558 22.5148 40.137 22.3954 40.8607 22.3178C41.1057 22.2834 41.2575 22.2278 41.2994 22.1572C41.3413 22.0865 41.2717 22.0035 41.0982 21.9173C40.7641 21.7455 40.3555 21.5728 39.8787 21.4019C39.6333 21.3179 39.3189 21.2381 38.9601 21.1688C38.6014 21.0995 38.208 21.0426 37.811 21.0025C37.5733 20.8974 37.4466 20.7939 37.4421 20.7016C37.4377 20.6093 37.5557 20.531 37.7855 20.4738C38.3712 20.3433 38.8904 20.2105 40.2026 20.2835C40.8196 20.3114 41.4002 20.3167 41.9215 20.2993C43.0776 20.2755 44.4112 20.3276 45.7966 20.4508C46.155 20.4823 46.5073 20.5039 46.8431 20.5147C49.2381 20.5904 51.5201 20.6282 53.8086 20.6548C55.021 20.6676 56.2432 20.6637 57.5089 20.701C60.4769 20.782 63.1786 20.7404 66.0434 20.7667C67.5438 20.7803 68.8868 20.7258 70.0019 20.606C70.219 20.5659 70.4055 20.5191 70.5592 20.4661C69.8203 20.327 69.0086 20.2168 68.202 20.1462C67.3953 20.0756 66.6207 20.0468 65.9524 20.0627C65.585 20.1016 65.1101 20.1088 64.5807 20.0833C64.0513 20.0578 63.4882 20.0007 62.9542 19.9183L64.5068 19.8717C65.5363 19.8499 66.5908 19.8432 67.5921 19.8119C69.1828 19.7581 70.6571 19.672 72.3043 19.6371C73.6342 19.605 74.8243 19.5231 75.8372 19.3939C76.569 19.2996 77.4047 19.2327 78.3274 19.1947C78.9833 19.1744 78.9833 19.1744 79.4026 18.9815C79.07 18.8567 78.6398 18.8392 78.2346 18.8368C75.8052 18.7583 73.4932 18.7445 71.3458 18.7958C70.2623 18.8003 69.3011 18.8532 68.5084 18.952C68.3142 18.9936 67.8176 18.9739 67.419 18.9604C66.1693 18.9398 64.975 18.9458 63.8502 18.9782C62.2952 19.0323 60.5633 19.0195 58.7218 18.9402C58.3726 18.8433 58.7745 18.8512 58.7943 18.8178C60.2206 18.7556 61.6186 18.6839 63.0732 18.6312C63.4708 18.6124 63.8958 18.6031 64.3435 18.6034C66.0147 18.6361 67.4074 18.5455 68.3264 18.3442C68.3725 18.2663 68.9771 18.2755 69.2442 18.225C69.3756 18.1812 69.4632 18.1298 69.5042 18.072C69.115 17.9283 68.6749 17.9275 68.3362 17.9274C67.3531 17.9434 66.4073 17.9738 65.5035 18.0185C64.6633 18.0609 63.7332 18.0723 62.7385 18.0522C62.0044 18.033 61.3768 18.0627 60.6361 18.0546C60.2343 18.0375 59.8184 18.01 59.3968 17.9728C59.8662 17.8726 60.5042 17.811 61.266 17.7922C61.8437 17.7324 62.566 17.7144 62.6583 17.5586C62.3855 17.4472 62.0816 17.4453 61.8375 17.4569C61.3294 17.4565 60.8387 17.4635 60.3679 17.4779C59.3695 17.5096 58.2886 17.51 57.1478 17.4792C56.547 17.4677 55.977 17.4712 55.4473 17.4896C54.2467 17.5141 53.0961 17.5687 51.9968 17.5937C49.745 17.6194 47.6912 17.7114 45.5275 17.76C45.046 17.772 44.6143 17.8141 43.9796 17.7414C43.3449 17.6688 43.3167 17.6593 43.2417 17.6142C43.0641 17.539 43.0103 17.466 43.0914 17.4105C43.2173 17.3586 43.4626 17.3297 43.7835 17.329C45.7177 17.2465 47.5523 17.1306 49.2757 16.982C50.0341 16.9523 50.6986 16.8916 51.2461 16.8021C51.6803 16.7404 52.1953 16.6996 52.775 16.6809C53.6182 16.6363 54.4972 16.6036 55.4085 16.583C55.8325 16.572 56.193 16.5389 56.4689 16.4859C56.7447 16.4329 56.9303 16.361 57.0147 16.2743L55.8975 15.9867C55.722 15.9733 55.5479 15.9617 55.3759 15.9519L46.1034 16.1591L45.1851 16.1648C44.1787 16.1477 43.9327 16.1053 42.978 15.7721C45.1568 15.6937 46.8695 15.4652 47.9456 15.1093C47.687 15.071 47.4219 15.0382 47.1564 15.0116C45.4152 14.9274 43.7692 14.905 42.2819 14.9453C41.3984 14.9494 40.49 14.9384 39.5783 14.933C39.8449 14.7689 40.8664 14.8178 41.5322 14.7808C43.123 14.7229 44.5297 14.6034 45.7074 14.426C46.1134 14.3569 46.6214 14.3126 47.208 14.2954C47.7951 14.2894 48.2855 14.2476 48.6366 14.1734C48.9877 14.0993 49.1887 13.9951 49.2222 13.87C49.2775 13.7567 49.3967 13.6514 49.578 13.5557C49.2573 13.42 48.7481 13.2899 48.1459 13.1901C47.5437 13.0902 46.89 13.0274 46.3074 13.0133C45.0636 12.9574 43.7735 12.8659 42.47 12.7411C41.8207 12.6781 41.184 12.642 40.6013 12.635C40.0874 12.6297 39.5032 12.5842 38.938 12.5056C38.3728 12.427 37.8574 12.3195 37.4706 12.1995C36.9485 12.0513 36.4612 11.9013 35.974 11.7514C35.4868 11.6015 34.9214 11.412 34.3526 11.2281C33.8511 11.1994 33.3628 11.1809 32.8943 11.1729C32.5298 11.1796 32.1044 11.1596 31.6684 11.1151C31.2324 11.0706 30.8039 11.0036 30.4336 10.9219C30.6508 10.8413 30.8964 10.7702 31.155 10.6768C30.8 10.5535 30.5426 10.4278 30.3984 10.3072C30.2543 10.1867 30.2265 10.0739 30.3167 9.97579C30.3694 9.88677 29.9835 9.73744 29.8501 9.6194C29.6784 9.51764 29.6462 9.42268 29.7576 9.34696C29.869 9.27124 30.1188 9.2183 30.4744 9.19508C30.9154 9.15223 31.2743 9.0877 31.5364 9.00413C31.6231 8.98244 31.6672 8.95273 31.6648 8.91772C31.6623 8.88271 31.6133 8.84352 31.5223 8.80373C31.4312 8.76394 31.3011 8.72483 31.1437 8.68996C30.9863 8.65509 30.8067 8.62558 30.6213 8.60414C30.0534 8.54334 29.4894 8.50393 28.9617 8.48817C28.0527 8.45919 27.1824 8.44098 26.3509 8.43356C25.4313 8.42237 24.4083 8.35336 23.3857 8.23352C22.4701 8.12013 21.6493 8.01846 21.2016 7.80177C20.754 7.58509 20.0382 7.59199 19.4878 7.43425C19.797 7.29205 20.3465 7.19326 21.0809 7.14783C21.5615 7.13161 21.9626 7.08905 22.2586 7.02286C22.5546 6.95668 22.7389 6.86834 22.7997 6.76351L21.1288 6.32366C19.7944 6.11658 19.0561 6.27596 17.6142 6.19294L19.0998 6.03057C19.1297 6.01451 19.1409 5.99567 19.1328 5.97493C18.9886 5.64652 18.7591 5.5763 17.2404 5.39418L16.3881 5.28861L15.039 5.16333C14.8229 5.09602 14.6735 5.02584 14.6056 4.95979C14.5377 4.89374 14.5537 4.83414 14.6521 4.78696C14.8498 4.7076 14.9098 4.6062 14.8269 4.49208C14.696 4.41649 14.6852 4.34681 14.7963 4.29512C14.9074 4.24342 15.1334 4.21299 15.4351 4.20911C15.6759 4.20309 15.6938 4.11573 15.8248 4.06626C15.9549 3.99807 16.1777 3.94576 16.4778 3.91286C16.778 3.87996 17.1485 3.86725 17.5643 3.87561C18.79 3.88244 19.9415 3.85685 20.9983 3.79928L20.8088 3.77582C21.9103 3.82636 22.9401 3.83248 23.848 3.79391C24.7578 3.74536 25.9255 3.7765 26.8919 3.74689C27.6786 3.75369 28.2776 3.68649 28.5617 3.55956C28.8368 3.43837 29.8367 3.46665 30.6024 3.48982C31.0559 3.50481 31.4943 3.51116 31.9128 3.5088C32.4745 3.48136 33.1768 3.50722 33.9026 3.58206C34.1204 3.60506 34.3349 3.61723 34.5256 3.6174C36.3707 3.64886 38.2125 3.68587 40.0327 3.70229C40.4529 3.69284 40.9455 3.71449 41.4529 3.76471C41.6661 3.78651 41.8737 3.79555 42.0476 3.79059C44.9237 3.74071 48.1692 3.86797 50.9888 3.79915C51.3305 3.78289 51.7088 3.77951 52.1131 3.7891C53.0214 3.82953 53.8101 3.80351 54.3596 3.71499C54.6561 3.66791 55.0362 3.64198 55.4757 3.63882C55.9151 3.63567 56.4043 3.65538 56.912 3.69669C57.7569 3.75139 58.5378 3.75732 59.1723 3.71386C60.4093 3.6737 61.7102 3.6572 63.0648 3.66446C63.4798 3.67148 63.8446 3.65588 64.131 3.61885C64.4174 3.58183 64.6176 3.52438 64.7162 3.45095C64.3835 3.32614 64.0198 3.31095 63.6744 3.32193C62.3358 3.29349 61.0004 3.25948 59.6867 3.24608C58.5109 3.20779 57.3827 3.19609 56.3187 3.21114C55.7904 3.22812 55.1311 3.1894 54.4848 3.10345C53.6927 2.99459 52.8769 2.9405 52.2023 2.95214C51.7022 2.95503 51.1743 2.94565 50.6262 2.92415C50.2754 2.89821 49.9159 2.85368 49.5844 2.79512C49.4529 2.76969 49.3098 2.7483 49.1641 2.73233C49.0185 2.71636 48.8737 2.70617 48.7389 2.70239C48.604 2.69861 48.4819 2.70132 48.3808 2.71038C48.2796 2.71943 48.2014 2.73461 48.1511 2.75495C47.6437 2.92501 46.509 2.83823 45.5374 2.81941C44.0814 2.53159 42.9978 2.70195 41.637 2.53938C41.5294 2.5286 41.4233 2.52207 41.3254 2.52021C41.2274 2.51835 41.1396 2.52118 41.0673 2.52854C38.4338 2.62639 35.3645 2.54484 32.5996 2.57863C32.2947 2.58357 31.9408 2.56664 31.5781 2.52975C29.2078 2.2856 26.9289 2.21629 25.1869 2.33537C24.9749 2.34609 24.7338 2.34655 24.4745 2.33672C23.2834 2.23969 22.1444 2.201 21.1526 2.22389C19.5981 2.2165 18.1036 2.22249 16.5241 2.20006C15.4354 2.16815 14.4803 2.20224 13.7545 2.29895C13.7314 2.3379 13.2479 2.29593 12.8776 2.29187C12.6646 2.19382 12.4799 2.10526 12.2603 2.01835C12.064 1.91082 11.77 1.802 11.3982 1.69929C11.0264 1.59657 10.5856 1.50236 10.1055 1.42301C9.28469 1.32135 9.2026 1.17383 9.77696 1.11955C11.2574 0.939989 13.1189 0.866496 15.2248 0.904466C16.9851 0.907501 18.7771 0.914452 20.5624 0.932525C21.6038 0.948029 22.7015 0.982466 23.7146 0.988496C24.0564 1.00175 24.4076 1.02127 24.7644 1.04686C25.2023 1.08396 25.6274 1.10418 26.0169 1.10643C27.2675 1.07518 28.6632 1.1024 30.1374 1.18679C30.6774 1.20519 31.1959 1.21139 31.6852 1.2053C32.8429 1.1824 34.0979 1.19925 35.417 1.25543C36.2369 1.28711 37.0319 1.30367 37.7937 1.30495C38.0628 1.30841 38.2819 1.2818 38.541 1.30195C40.8221 1.5128 42.4373 1.3605 44.4902 1.44158C45.488 1.46419 46.4413 1.46425 47.3367 1.44178C49.084 1.44286 50.8801 1.46598 52.7176 1.51103C55.1475 1.58505 57.3993 1.55937 59.7194 1.58993C60.1775 1.59635 60.6198 1.59526 61.043 1.58665C63.102 1.52977 65.3384 1.54183 67.6976 1.62254C68.2333 1.6342 68.7144 1.61994 69.1109 1.58067C69.5073 1.5414 69.8106 1.47795 70.0016 1.39431C70.0824 1.3369 70.0301 1.26234 69.8546 1.185C69.5634 1.08623 69.2346 0.989461 68.8735 0.896281L55.741 0.583604C55.1894 0.567277 54.6515 0.558486 54.1301 0.557272C52.5963 0.554554 51.0154 0.530229 49.3951 0.48442C47.794 0.441389 46.2645 0.449027 44.7133 0.436072C44.2565 0.431733 43.7875 0.421492 43.3083 0.405383C40.0696 0.27788 36.9115 0.200003 33.8562 0.17231C32.5709 0.168381 31.1823 0.109865 29.8719 0.0908986C28.5615 0.0719307 26.7696 0.0649876 25.2151 0.0575947L20.4025 0.0587291C19.4559 0.0549566 18.5342 0.0662161 17.6159 0.0719161C16.5015 -0.334847 16.1174 -0.430189 14.6303 -0.608397C14.1216 -0.674133 13.6041 -0.713363 13.1386 -0.721492C11.6624 -0.689336 9.81009 -0.823191 8.4102 -0.805469C7.56549 -0.81421 6.84871 -0.769023 6.33325 -0.674533C5.88579 -0.600375 5.37412 -0.541697 4.80613 -0.499382C3.25021 -0.847359 3.11309 -1.07336 4.2835 -1.16131C4.6006 -1.18175 5.03739 -1.17543 5.26637 -1.21873C5.39776 -1.2451 5.57725 -1.26018 5.79054 -1.26279C6.00383 -1.2654 6.24501 -1.25546 6.49518 -1.23375C7.28472 -1.17681 8.02475 -1.16341 8.64101 -1.19492C9.22098 -1.23662 9.9319 -1.23495 10.7052 -1.19008C11.2735 -1.1197 11.773 -1.21908 12.2644 -1.24779C12.7558 -1.27651 13.1591 -1.32808 13.9267 -1.25093C14.0673 -1.23557 14.2068 -1.22635 14.3346 -1.22397C14.4625 -1.2216 14.5752 -1.22614 14.6641 -1.23724C15.4885 -1.28692 16.4723 -1.2817 17.5356 -1.222C19.1663 -1.16325 20.6963 -1.16105 22.0726 -1.21547C22.8964 -1.26308 23.5989 -1.34752 24.1524 -1.46549C24.3033 -1.50495 24.5273 -1.52861 24.803 -1.5342C26.1878 -1.50959 27.6913 -1.41695 29.2167 -1.26227C29.7914 -1.20029 30.3653 -1.15126 30.9262 -1.11623C32.079 -1.03842 33.194 -0.99482 34.2382 -0.986717C35.7554 -0.985432 37.3351 -0.955494 38.9633 -0.897173C39.968 -0.8647 40.9362 -0.852714 41.8563 -0.861347C42.802 -0.865416 43.8117 -0.840646 44.8625 -0.787611C45.9076 -0.744394 46.8285 -0.769293 47.5143 -0.859301C47.7402 -0.907802 47.9221 -0.965396 48.0566 -1.03101C46.5265 -1.24451 44.9441 -1.35302 43.6279 -1.33468C43.1279 -1.34882 42.7128 -1.33454 42.186 -1.4177L42.1695 -1.38988C42.0647 -1.37184 41.9065 -1.36758 41.7252 -1.37792C41.5438 -1.38827 41.352 -1.41249 41.1862 -1.44598C41.2488 -1.55169 41.3082 -1.65183 41.3511 -1.72416C42.3539 -1.7114 43.3276 -1.71243 44.2673 -1.72727C45.0593 -1.74861 46.1346 -1.56169 46.8201 -1.63205C48.1574 -1.54406 49.0088 -1.66555 50.208 -1.63049C51.4071 -1.59544 52.7279 -1.47963 53.9271 -1.44458C54.9735 -1.42534 55.9895 -1.42116 56.9695 -1.43205C57.3078 -1.44734 57.6977 -1.44376 58.1154 -1.42151C58.7026 -1.37966 59.2488 -1.37265 59.6913 -1.40128C60.1338 -1.42991 60.4547 -1.49304 60.6174 -1.58342C60.4642 -1.66808 60.2579 -1.77724 60.0199 -1.89032C60.4577 -1.98324 61.1225 -2.02236 61.9159 -2.00188L63.0369 -2.00636C63.3339 -2.00391 63.561 -2.02903 63.6711 -2.07652C63.7813 -2.12402 63.7661 -2.19025 63.6286 -2.26153C61.5031 -2.62034 61.4248 -2.65989 59.8647 -2.4291L57.7934 -2.53635L57.8283 -2.53799ZM85.8451 -1.55235L85.6873 -1.5719L85.8451 -1.55235ZM343.978 36.6229L343.942 36.6841L343.981 36.6174L344.328 36.6604L344.351 36.6214L343.978 36.6229ZM293.557 9.79897C293.067 9.7322 292.571 9.67082 292.074 9.61519C291.943 9.60657 291.822 9.60462 291.718 9.60951C291.615 9.61441 291.534 9.62599 291.481 9.6433C291.441 9.71006 291.719 9.75638 291.971 9.78766C292.29 9.82976 292.615 9.85652 292.914 9.86517C293.213 9.87381 293.474 9.86405 293.671 9.83686L293.956 9.8125L293.557 9.79897ZM40.7375 26.0709C41.0607 26.0821 41.3671 26.0839 41.6493 26.0763C42.9012 26.0223 44.0998 25.9438 45.3833 25.8938C47.0028 25.7667 48.8637 25.715 50.8962 25.7405C51.6903 25.753 52.3611 25.7118 52.8305 25.6217C53.1114 25.5734 53.4741 25.5452 53.8962 25.5388L59.2696 25.3921C59.6017 25.3616 59.8889 25.319 60.1243 25.265C59.6508 25.2064 59.3351 25.1673 59.1457 25.1438C58.7526 25.1372 58.4148 25.1551 58.1661 25.1957C57.8989 25.2645 57.4473 25.2917 56.9009 25.2719C56.3494 25.2556 55.8115 25.2468 55.29 25.2456C54.3052 25.249 53.3138 25.2636 52.3257 25.2726C51.9412 25.4638 50.8066 25.3771 49.835 25.3582L49.0844 25.3668C46.6309 25.466 44.2872 25.6024 42.0648 25.7754C41.6352 25.8047 41.2652 25.8514 40.966 25.914C40.8533 25.9629 40.8172 26.0239 40.8605 26.0921L40.7027 26.0725L40.7375 26.0709ZM150.301 44.3585C150.897 44.3715 151.516 44.3983 152.152 44.4383C152.641 44.4793 153.119 44.5041 153.565 44.5119C156.068 44.5548 158.676 44.6538 161.354 44.8076C161.704 44.8309 162.04 44.8424 162.35 44.8415L164.542 44.8024C165.233 44.7805 165.246 44.7582 164.743 44.463C164.326 44.4058 163.904 44.3535 163.48 44.3066C163.228 44.2754 162.818 44.2245 162.721 44.2724C162.136 44.4029 161.068 44.3183 160.169 44.2907C157.568 44.2193 154.886 44.1141 152.26 44.0277C151.704 44.0066 151.167 43.9959 150.652 43.9958C150.332 43.9914 150.041 43.9997 149.79 44.0204C149.717 44.0226 149.655 44.0287 149.61 44.0386C149.565 44.0484 149.536 44.0616 149.527 44.0774C149.517 44.0932 149.527 44.1112 149.556 44.1301C149.584 44.1491 149.63 44.1686 149.691 44.1873C149.906 44.2531 150.154 44.316 150.428 44.3741L150.301 44.3585ZM169.355 1.51674L171.917 1.48175C172.224 1.47799 172.485 1.4386 172.814 1.45545C174.568 1.50884 176.193 1.49397 177.618 1.41146C178.103 1.3778 178.671 1.37107 179.29 1.39164C181.186 1.45261 182.974 1.45512 184.606 1.39909C185.661 1.38785 186.648 1.35009 187.553 1.28637C187.623 1.27157 187.666 1.25149 187.681 1.22749C187.695 1.20348 187.68 1.17613 187.636 1.14728C187.624 1.12905 187.593 1.10944 187.545 1.08981C187.496 1.07018 187.432 1.05097 187.355 1.03353C187.278 1.0161 187.192 1.00084 187.101 0.988801C187.01 0.976764 186.918 0.968234 186.83 0.963806C185.686 0.877554 184.601 0.847507 183.662 0.876101C182.792 0.910315 181.855 0.920327 180.866 0.905979C179.919 0.902206 179.277 1.01377 178.107 0.928642C177.613 0.900609 177.176 0.909839 176.872 0.954781C176.259 1.02928 175.404 1.03342 174.459 0.966475C173.893 0.932594 173.353 0.918066 172.858 0.92344C171.657 0.947933 170.51 0.996934 169.398 1.04428C169.047 1.05524 168.671 1.05675 168.277 1.04878L162.706 0.956069C161.368 0.927627 160.032 0.893624 158.719 0.88022C157.644 0.851117 156.644 0.860231 155.754 0.907243C154.805 0.956653 153.771 0.976712 152.669 0.967042C150.959 0.994083 149.258 1.00442 147.396 1.00079C146.209 1.00302 144.993 0.995793 143.753 0.97352C143.125 0.944853 142.592 0.968198 142.257 1.03906C142.053 1.0974 141.573 1.04987 141.174 1.03633C139.048 0.905838 137.054 0.874918 135.331 0.945725C135.111 0.957264 134.87 0.96144 134.612 0.958185C132.953 0.955754 131.234 0.939938 129.642 0.939763C129.222 0.945264 128.828 0.960359 128.463 0.984858C128.502 1.02483 128.613 1.06815 128.774 1.10583C128.935 1.14352 129.132 1.17268 129.326 1.18727C130.832 1.29893 132.286 1.35792 133.628 1.36176C135.86 1.34753 138.199 1.37951 140.62 1.45736C142.498 1.53583 144.21 1.51931 145.63 1.40901C146.739 1.32672 148.183 1.35768 149.712 1.49659C150.366 1.56293 151.002 1.58946 151.531 1.57255C152.04 1.55037 152.624 1.55575 153.25 1.58837C154.568 1.65041 155.836 1.67919 157.028 1.67414C158.194 1.6513 159.281 1.58892 160.479 1.56999C161.676 1.55106 163.499 1.56191 164.976 1.52975C166.452 1.49759 167.912 1.49326 169.355 1.51674ZM63.1825 -1.7375C63.3178 -1.56548 63.7965 -1.45841 64.3116 -1.41254C66.0871 -1.20886 67.8425 -1.12219 69.283 -1.16707C70.0611 -1.22967 71.0985 -1.20557 72.1912 -1.09951C73.4635 -0.989259 74.6527 -0.970975 75.5493 -1.04788C75.769 -1.06132 75.9371 -1.08973 76.0389 -1.13058C76.0587 -1.16396 76.0949 -1.22515 76.1015 -1.23628C76.0073 -1.2645 75.8918 -1.29065 75.7639 -1.3127C75.6359 -1.33476 75.499 -1.35214 75.3637 -1.3635L69.4823 -1.56042L68.4574 -1.60375C66.5854 -1.71728 64.8016 -1.7625 63.1825 -1.7375ZM74.7511 0.985238C75.669 1.26614 75.6722 1.26056 76.1425 1.32478C78.4112 1.5915 80.6783 1.73549 82.6741 1.7396C83.1177 1.73878 83.4942 1.71167 83.7716 1.66053C83.9144 1.6536 84.0052 1.63158 84.0244 1.59927C84.0435 1.56696 83.9894 1.52698 83.8738 1.48806L83.1439 1.29016C81.8183 1.20449 80.5118 1.13642 79.2321 1.08635C77.7422 1.02723 76.4219 1.02495 74.8773 1.00087L74.7511 0.985238ZM150.191 43.1146C151.047 43.5012 151.05 43.4957 152.482 43.5954C153.48 43.6661 154.448 43.7075 155.357 43.7186C156.468 43.7308 157.607 43.7524 158.715 43.7702C158.986 43.7825 159.215 43.7723 159.359 43.7415C159.502 43.7107 159.55 43.6616 159.492 43.6036C159.346 43.5407 159.119 43.4798 158.846 43.4309C158.574 43.382 158.272 43.3479 157.991 43.3341L157.386 43.325C156.652 43.3057 155.89 43.277 155.181 43.2727C154.721 43.2888 154.188 43.2764 153.623 43.2365C153.059 43.1967 152.479 43.1305 151.928 43.0431L150.191 43.1146ZM79.3183 -1.23201C79.5467 -1.16506 79.805 -1.10094 80.0863 -1.04135C81.1757 -0.876172 82.3287 -0.782361 83.3192 -0.778302C83.7876 -0.76807 84.2159 -0.804602 84.6927 -0.751514C85.548 -0.680576 86.3768 -0.642787 87.1345 -0.640195C87.1345 -0.640195 87.3469 -0.655685 87.4167 -0.658994L87.5618 -0.903789C87.2031 -0.960498 86.829 -1.00683 86.4568 -1.04064C85.2077 -1.10577 83.9802 -1.1503 82.7561 -1.20039C81.5319 -1.25048 81.1051 -1.27349 80.3045 -1.295C79.9474 -1.28318 79.6171 -1.26208 79.3183 -1.23201ZM52.268 29.2009L53.9027 29.702C54.4317 29.7455 54.9258 29.7534 55.31 29.7245C55.6942 29.6955 55.9473 29.6313 56.0309 29.5416C56.1655 29.4996 56.179 29.4374 56.0685 29.3681C55.958 29.2987 55.732 29.2276 55.4381 29.1696C55.1552 29.1008 54.8323 29.0392 54.4893 28.9885C54.1462 28.9378 53.7905 28.8991 53.4441 28.8748L52.268 29.2009ZM65.8782 26.7062C64.809 26.6213 63.7864 26.5866 62.8885 26.6047C62.3228 26.6544 61.5563 26.6385 60.7461 26.5603C59.2727 26.4044 57.8523 26.3613 56.7848 26.44C56.7848 26.44 56.7452 26.5067 56.5642 26.5261C56.3833 26.5455 57.1009 26.5926 57.2588 26.6121C58.4165 26.66 59.5808 26.6967 60.5873 26.7138C61.2121 26.7131 61.873 26.7289 62.5587 26.7609C63.5021 26.8104 64.3967 26.8264 65.2077 26.8083C65.2077 26.8083 65.5215 26.7935 65.8749 26.7118L65.8782 26.7062ZM180.059 0.608985C179.548 0.514624 178.995 0.437931 178.439 0.384665C177.884 0.331401 177.341 0.30295 176.853 0.301434C176.478 0.296512 176.175 0.321426 175.992 0.37224C175.808 0.423052 175.754 0.496865 175.839 0.582007C176.218 0.628926 176.723 0.691486 177.007 0.726676C177.992 0.723233 178.832 0.677986 180.059 0.608985ZM275.653 8.56086C275.243 8.4849 274.792 8.42682 274.351 8.39326C273.909 8.3597 273.495 8.35201 273.156 8.37106C272.982 8.37933 273.1 8.46564 273.071 8.51572C273.051 8.52707 273.052 8.54119 273.071 8.5566C273.091 8.57201 273.13 8.58814 273.183 8.6033C273.237 8.61846 273.303 8.63209 273.375 8.64276C273.447 8.65344 273.522 8.66077 273.593 8.66398C274.037 8.69671 274.457 8.70645 274.814 8.69233C275.171 8.67822 275.455 8.6407 275.64 8.58312L275.653 8.56086ZM282.058 9.64676C281.995 9.60193 281.86 9.55522 281.678 9.51517C281.497 9.47512 281.28 9.44442 281.069 9.42872C280.696 9.4266 280.357 9.43904 280.065 9.46554C279.747 9.48598 279.976 9.61576 280.404 9.69276C280.586 9.72366 280.78 9.74777 280.971 9.76316C281.162 9.77855 281.345 9.7848 281.505 9.78142C281.665 9.77803 281.797 9.7651 281.892 9.74366C281.987 9.72221 282.042 9.69285 282.052 9.65789L282.058 9.64676ZM95.9456 -0.755248C94.99 -0.915405 94.2545 -0.875113 93.4455 -0.939484C92.6364 -1.00385 92.4371 -1.01063 92.5455 -0.907621C92.6539 -0.804618 93.2085 -0.825507 93.5558 -0.782496C94.025 -0.725425 94.497 -0.692654 94.919 -0.687841C95.3411 -0.683028 95.6966 -0.706367 95.9456 -0.755248ZM295.071 26.3435C294.565 26.3076 294.069 26.2822 293.591 26.2677C293.528 26.2826 293.488 26.3021 293.475 26.325C293.461 26.3479 293.474 26.3738 293.512 26.4012C293.512 26.4012 293.836 26.4832 294.025 26.5066C294.723 26.5871 294.757 26.4719 295.071 26.3435ZM366.608 41.2651C366.951 41.3733 367.111 41.4468 367.385 41.4987C367.511 41.5167 367.641 41.5298 367.766 41.537C367.891 41.5441 368.007 41.5452 368.106 41.5402C368.226 41.509 368.255 41.4614 368.185 41.4067C368.185 41.4067 367.836 41.3097 367.703 41.3052C367.324 41.2823 366.956 41.2688 366.608 41.2651ZM79.6801 -1.67093C78.954 -1.76087 78.2594 -1.84689 77.7567 -1.74194C78.9097 -1.629 78.9098 -1.62899 79.6801 -1.67093ZM91.4406 -0.644345C90.7074 -0.836677 90.2772 -0.85413 89.9252 -0.832031C89.8504 -0.826466 89.8009 -0.81406 89.7842 -0.796698C89.7675 -0.779337 89.7845 -0.757962 89.8326 -0.735806C89.8807 -0.71365 89.9574 -0.691921 90.0509 -0.673901C90.1445 -0.655884 90.2499 -0.642558 90.3512 -0.635943C90.7336 -0.630407 91.0982 -0.633218 91.4406 -0.644345ZM129.177 -0.563016C129.193 -0.590834 129.213 -0.624215 129.024 -0.647675C128.974 -0.659585 128.916 -0.669826 128.855 -0.677376C128.794 -0.684926 128.732 -0.689512 128.677 -0.69068C128.677 -0.69068 128.657 -0.657297 128.644 -0.635044L129.177 -0.563016ZM155.382 45.6207L154.96 45.6461L155.15 45.6696L155.65 45.6837L155.382 45.6207ZM303.868 9.21269C303.71 9.19314 303.552 9.17359 303.529 9.21253C303.496 9.21856 303.475 9.22727 303.469 9.23792C303.462 9.24856 303.471 9.26084 303.493 9.27373C303.493 9.27373 303.714 9.30111 303.808 9.31283L303.868 9.21269ZM279.284 9.52417C279.18 9.52193 279.087 9.52455 279.009 9.53184L278.989 9.56522L279.305 9.60432L279.284 9.52417ZM65.0444 17.4779C64.9225 17.4576 64.7932 17.4416 64.6656 17.4309L64.5077 17.4114C64.5077 17.4114 64.6773 17.4682 64.772 17.48C64.8667 17.4917 64.9431 17.4773 65.0444 17.4779Z" fill="#DF6951"/>
</g>
</svg>
